<svg width="32" height="27" viewBox="0 0 32 27" fill="none" xmlns="http://www.w3.org/2000/svg">
<path fill-rule="evenodd" clip-rule="evenodd" d="M9.15503 24.8176L13.3475 25.8685V24.4943L13.6898 24.1709H16.0855V25.7877V26.9194H13.5187L10.3529 25.626L9.15503 24.8176Z" fill="#CDBDB2"/>
<path fill-rule="evenodd" clip-rule="evenodd" d="M22.845 24.8176L18.738 25.8685V24.4943L18.3958 24.1709H16.0001V25.7877V26.9194H18.5669L21.7327 25.626L22.845 24.8176Z" fill="#CDBDB2"/>
<path fill-rule="evenodd" clip-rule="evenodd" d="M13.6899 21.8266L13.3477 24.4942L13.7755 24.1709H18.2247L18.738 24.4942L18.3958 21.8266L17.7113 21.4224L14.2888 21.5032L13.6899 21.8266Z" fill="#393939"/>
<path fill-rule="evenodd" clip-rule="evenodd" d="M11.3796 3.79932L13.4331 8.32626L14.3743 21.5029H17.7112L18.7379 8.32626L20.6203 3.79932H11.3796Z" fill="#F89C35"/>
<path fill-rule="evenodd" clip-rule="evenodd" d="M2.39572 13.7425L0 20.2904L5.98931 19.9671H9.83957V17.1377L9.66845 11.3174L8.81283 11.9641L2.39572 13.7425Z" fill="#F89D35"/>
<path fill-rule="evenodd" clip-rule="evenodd" d="M6.93042 14.4702L13.9465 14.6319L13.1764 18.0271L9.83951 17.2187L6.93042 14.4702Z" fill="#D87C30"/>
<path fill-rule="evenodd" clip-rule="evenodd" d="M6.93042 14.5508L9.83951 17.1376V19.7244L6.93042 14.5508Z" fill="#EA8D3A"/>
<path fill-rule="evenodd" clip-rule="evenodd" d="M9.8396 17.2188L13.2621 18.0271L14.3744 21.5032L13.6043 21.9074L9.8396 19.8056V17.2188Z" fill="#F89D35"/>
<path fill-rule="evenodd" clip-rule="evenodd" d="M9.83952 19.8052L9.15503 24.8172L13.6898 21.8261L9.83952 19.8052Z" fill="#EB8F35"/>
<path fill-rule="evenodd" clip-rule="evenodd" d="M13.9464 14.6318L14.3742 21.5031L13.0908 17.9866L13.9464 14.6318Z" fill="#EA8E3A"/>
<path fill-rule="evenodd" clip-rule="evenodd" d="M5.90381 19.886L9.83964 19.8052L9.15515 24.8172L5.90381 19.886Z" fill="#D87C30"/>
<path fill-rule="evenodd" clip-rule="evenodd" d="M1.88235 27L9.15508 24.8174L5.90374 19.8862L0 20.2904L1.88235 27Z" fill="#D87C30"/>
<path fill-rule="evenodd" clip-rule="evenodd" d="M13.4331 8.32617L9.75395 11.2364L6.93042 14.4699L13.9465 14.7124L13.4331 8.32617Z" fill="#E8821E"/>
<path fill-rule="evenodd" clip-rule="evenodd" d="M9.15503 24.8172L13.6898 21.8262L13.3475 24.413V25.8681L10.2673 25.3022L9.15503 24.8172Z" fill="#DFCEC3"/>
<path fill-rule="evenodd" clip-rule="evenodd" d="M22.845 24.8172L18.3958 21.8262L18.738 24.413V25.8681L21.8182 25.3022L22.845 24.8172Z" fill="#DFCEC3"/>
<path fill-rule="evenodd" clip-rule="evenodd" d="M12.0642 16.0869L13.0054 17.9462L9.66847 17.1378L12.0642 16.0869Z" fill="#393939"/>
<path fill-rule="evenodd" clip-rule="evenodd" d="M1.79688 0L13.4332 8.32635L11.4653 3.7994L1.79688 0Z" fill="#E88F35"/>
<path fill-rule="evenodd" clip-rule="evenodd" d="M1.7967 0L0.256592 4.44611L1.11221 9.29641L0.513276 9.61976L1.36889 10.3473L0.684399 10.9132L1.62558 11.7216L1.02665 12.2066L2.39563 13.8234L8.81274 11.9641C8.81274 11.9641 13.5186 8.40719 13.4331 8.32635C13.3475 8.24551 1.7967 0 1.7967 0Z" fill="#8E5A30"/>
<path fill-rule="evenodd" clip-rule="evenodd" d="M29.6043 13.7425L32 20.2904L26.0107 19.9671H22.1604V17.1377L22.3316 11.3174L23.1872 11.9641L29.6043 13.7425Z" fill="#F89D35"/>
<path fill-rule="evenodd" clip-rule="evenodd" d="M25.0696 14.4702L18.0535 14.6319L18.8236 18.0271L22.1605 17.2187L25.0696 14.4702Z" fill="#D87C30"/>
<path fill-rule="evenodd" clip-rule="evenodd" d="M25.0696 14.5508L22.1605 17.1376V19.7244L25.0696 14.5508Z" fill="#EA8D3A"/>
<path fill-rule="evenodd" clip-rule="evenodd" d="M22.1604 17.2188L18.7379 18.0271L17.6256 21.5032L18.3957 21.9074L22.1604 19.8056V17.2188Z" fill="#F89D35"/>
<path fill-rule="evenodd" clip-rule="evenodd" d="M22.1605 19.8052L22.845 24.8172L18.3958 21.907L22.1605 19.8052Z" fill="#EB8F35"/>
<path fill-rule="evenodd" clip-rule="evenodd" d="M18.0536 14.6318L17.6258 21.5031L18.9092 17.9866L18.0536 14.6318Z" fill="#EA8E3A"/>
<path fill-rule="evenodd" clip-rule="evenodd" d="M26.0962 19.886L22.1604 19.8052L22.8449 24.8172L26.0962 19.886Z" fill="#D87C30"/>
<path fill-rule="evenodd" clip-rule="evenodd" d="M30.1176 27L22.8449 24.8174L26.0963 19.8862L32 20.2904L30.1176 27Z" fill="#D87C30"/>
<path fill-rule="evenodd" clip-rule="evenodd" d="M18.5669 8.32617L22.2461 11.2364L25.0696 14.4699L18.0535 14.7124L18.5669 8.32617Z" fill="#E8821E"/>
<path fill-rule="evenodd" clip-rule="evenodd" d="M19.9358 16.0869L18.9946 17.9462L22.3315 17.1378L19.9358 16.0869Z" fill="#393939"/>
<path fill-rule="evenodd" clip-rule="evenodd" d="M30.2031 0L18.5668 8.32635L20.5347 3.7994L30.2031 0Z" fill="#E88F35"/>
<path fill-rule="evenodd" clip-rule="evenodd" d="M30.2033 0L31.7434 4.44611L30.8878 9.29641L31.4867 9.61976L30.6311 10.3473L31.3156 10.9132L30.3744 11.7216L30.9734 12.2066L29.6044 13.8234L23.1873 11.9641C23.1873 11.9641 18.4814 8.40719 18.5669 8.32635C18.6525 8.24551 30.2033 0 30.2033 0Z" fill="#8E5A30"/>
</svg>
