<?xml version="1.0" encoding="UTF-8"?>
<svg width="110px" height="110px" viewBox="0 0 110 110" version="1.1" xmlns="http://www.w3.org/2000/svg" xmlns:xlink="http://www.w3.org/1999/xlink">
    <title>path16</title>
    <g id="staker---staking-flow" stroke="none" stroke-width="1" fill="none" fill-rule="evenodd">
        <path d="M24.8563892,55 L12.4228214,67.4228214 L0,55 L12.4228214,42.5771786 L24.8563892,55 Z M55,24.8348964 L76.2885893,46.1342321 L88.7114107,33.7114107 L55,0 L21.2885893,33.7114107 L33.7114107,46.1342321 L55,24.8348964 Z M97.587925,42.5771786 L85.1651036,55 L97.587925,67.4228214 L110,55 L97.587925,42.5771786 Z M55,85.1651036 L33.7114107,63.8765143 L21.2885893,76.2885893 L55,110 L88.7114107,76.2885893 L76.2885893,63.8765143 L55,85.1651036 Z M55,67.4228214 L67.4228214,55 L55,42.5771786 L42.5771786,55 L55,67.4228214 Z" id="path16" fill="#126261" fill-rule="nonzero"></path>
    </g>
</svg>