<svg width="331" height="34" viewBox="0 0 331 34" fill="none" xmlns="http://www.w3.org/2000/svg">
<path fill-rule="evenodd" clip-rule="evenodd" d="M201.08 26.666C203.318 26.666 205.187 26.3525 206.687 25.7256C208.187 25.0986 209.347 24.1406 210.168 22.8516C210.988 21.5625 211.398 20.1797 211.398 18.7031C211.398 17.0742 211.055 15.7061 210.37 14.5986C209.684 13.4912 208.735 12.6182 207.522 11.9795C206.309 11.3408 204.437 10.7227 201.906 10.125C199.375 9.52734 197.781 8.95312 197.125 8.40234C196.609 7.96875 196.351 7.44727 196.351 6.83789C196.351 6.16992 196.627 5.63672 197.177 5.23828C198.033 4.61719 199.216 4.30664 200.728 4.30664C202.193 4.30664 203.292 4.59668 204.024 5.17676C204.756 5.75684 205.234 6.70898 205.457 8.0332L210.66 7.80469C210.578 5.4375 209.719 3.54492 208.085 2.12695C206.45 0.708984 204.015 0 200.781 0C198.8 0 197.11 0.298828 195.71 0.896484C194.309 1.49414 193.237 2.36426 192.493 3.50684C191.749 4.64941 191.377 5.87695 191.377 7.18945C191.377 9.22852 192.168 10.957 193.75 12.375C194.875 13.3828 196.832 14.2324 199.621 14.9238C201.789 15.4629 203.177 15.8379 203.787 16.0488C204.677 16.3652 205.301 16.7373 205.659 17.165C206.016 17.5928 206.195 18.1113 206.195 18.7207C206.195 19.6699 205.77 20.499 204.92 21.208C204.071 21.917 202.808 22.2715 201.132 22.2715C199.55 22.2715 198.294 21.873 197.362 21.0762C196.43 20.2793 195.812 19.0312 195.507 17.332L190.445 17.8242C190.785 20.707 191.828 22.9014 193.574 24.4072C195.32 25.9131 197.822 26.666 201.08 26.666ZM8.47266 26.6484C10.9336 26.6484 12.9902 25.8516 14.6426 24.2578C16.2949 22.6641 17.1211 20.7363 17.1211 18.4746C17.1211 16.916 16.6787 15.5859 15.7939 14.4844C14.9092 13.3828 13.7285 12.6738 12.252 12.3574C14.7246 11.0098 15.9609 9.20508 15.9609 6.94336C15.9609 5.34961 15.3574 3.91992 14.1504 2.6543C12.6855 1.10742 10.7402 0.333984 8.31445 0.333984C6.89648 0.333984 5.61621 0.600586 4.47363 1.13379C3.33105 1.66699 2.44043 2.39941 1.80176 3.33105C1.16309 4.2627 0.685547 5.50781 0.369141 7.06641L4.92188 7.83984C5.05078 6.71484 5.41406 5.85938 6.01172 5.27344C6.60938 4.6875 7.33008 4.39453 8.17383 4.39453C9.0293 4.39453 9.71484 4.65234 10.2305 5.16797C10.7461 5.68359 11.0039 6.375 11.0039 7.24219C11.0039 8.26172 10.6523 9.0791 9.94922 9.69434C9.24609 10.3096 8.22656 10.5996 6.89062 10.5645L6.3457 14.5898C7.22461 14.3438 7.98047 14.2207 8.61328 14.2207C9.57422 14.2207 10.3887 14.584 11.0566 15.3105C11.7246 16.0371 12.0586 17.0215 12.0586 18.2637C12.0586 19.5762 11.71 20.6191 11.0127 21.3926C10.3154 22.166 9.45703 22.5527 8.4375 22.5527C7.48828 22.5527 6.67969 22.2305 6.01172 21.5859C5.34375 20.9414 4.93359 20.0098 4.78125 18.791L0 19.3711C0.246094 21.5391 1.13672 23.2939 2.67188 24.6357C4.20703 25.9775 6.14062 26.6484 8.47266 26.6484ZM28.4224 26.209V20.4434C28.4224 17.2676 28.5601 15.1816 28.8355 14.1855C29.1109 13.1895 29.4888 12.501 29.9693 12.1201C30.4498 11.7393 31.0357 11.5488 31.7271 11.5488C32.4419 11.5488 33.2154 11.8184 34.0474 12.3574L35.5767 8.05078C34.5337 7.42969 33.4498 7.11914 32.3248 7.11914C31.5279 7.11914 30.816 7.31836 30.189 7.7168C29.5621 8.11523 28.856 8.94141 28.0709 10.1953V7.54102H23.483V26.209H28.4224ZM49.9806 25.8486C48.9435 26.3701 47.8976 26.6309 46.8429 26.6309C44.6984 26.6309 42.8614 25.7666 41.3321 24.0381C39.8028 22.3096 39.0382 19.8984 39.0382 16.8047C39.0382 13.6406 39.7823 11.2354 41.2706 9.58887C42.7589 7.94238 44.6398 7.11914 46.9132 7.11914C48.9991 7.11914 50.8038 7.98633 52.3273 9.7207V0.439453H57.2667V26.209H52.6788V23.4668C51.9171 24.5332 51.0177 25.3271 49.9806 25.8486ZM48.2491 22.7285C46.8194 22.7285 45.7062 22.084 44.9093 20.7949C44.3585 19.9043 44.0831 18.4629 44.0831 16.4707C44.0831 14.6191 44.4786 13.2275 45.2696 12.2959C46.0607 11.3643 47.0421 10.8984 48.214 10.8984C49.421 10.8984 50.4112 11.3701 51.1847 12.3135C51.9581 13.2568 52.3448 14.8008 52.3448 16.9453C52.3448 18.8672 51.9464 20.3115 51.1495 21.2783C50.3526 22.2451 49.3859 22.7285 48.2491 22.7285ZM82.26 16.4883V26.209H77.0569V0.439453H85.4065C88.5705 0.439453 90.633 0.568359 91.594 0.826172C93.0705 1.21289 94.3069 2.05371 95.303 3.34863C96.299 4.64355 96.7971 6.31641 96.7971 8.36719C96.7971 9.94922 96.51 11.2793 95.9358 12.3574C95.3615 13.4355 94.6321 14.2822 93.7473 14.8975C92.8625 15.5127 91.9631 15.9199 91.049 16.1191C89.8069 16.3652 88.008 16.4883 85.6526 16.4883H82.26ZM85.1076 12.1113H82.26V4.79883H84.7737C86.6487 4.79883 87.8967 4.85742 88.5178 4.97461C89.3615 5.12695 90.0588 5.50781 90.6096 6.11719C91.1604 6.72656 91.4358 7.5 91.4358 8.4375C91.4358 9.19922 91.2395 9.86719 90.8469 10.4414C90.4543 11.0156 89.9123 11.4375 89.2209 11.707C88.5295 11.9766 87.1584 12.1113 85.1076 12.1113ZM111.456 26.0156C110.495 26.4258 109.47 26.6309 108.38 26.6309C106.458 26.6309 104.943 26.1094 103.836 25.0664C102.728 24.0234 102.175 22.7051 102.175 21.1113C102.175 20.0566 102.427 19.1162 102.93 18.29C103.434 17.4639 104.14 16.8311 105.049 16.3916C105.957 15.9521 107.266 15.5684 108.977 15.2402C111.286 14.8066 112.886 14.4023 113.776 14.0273V13.5352C113.776 12.5859 113.542 11.9092 113.073 11.5049C112.604 11.1006 111.72 10.8984 110.419 10.8984C109.54 10.8984 108.854 11.0713 108.362 11.417C107.87 11.7627 107.471 12.3691 107.167 13.2363L102.684 12.4277C103.188 10.623 104.055 9.28711 105.286 8.41992C106.516 7.55273 108.345 7.11914 110.77 7.11914C112.973 7.11914 114.614 7.37988 115.692 7.90137C116.77 8.42285 117.529 9.08496 117.969 9.8877C118.408 10.6904 118.628 12.1641 118.628 14.3086L118.575 20.0742C118.575 21.7148 118.654 22.9248 118.812 23.7041C118.97 24.4834 119.266 25.3184 119.7 26.209H114.813C114.684 25.8809 114.526 25.3945 114.339 24.75C114.257 24.457 114.198 24.2637 114.163 24.1699C113.319 24.9902 112.417 25.6055 111.456 26.0156ZM109.856 23.1504C109.059 23.1504 108.403 22.8984 107.887 22.3945C107.372 21.8906 107.114 21.293 107.114 20.6016C107.114 19.8984 107.436 19.3184 108.081 18.8613C108.503 18.5801 109.399 18.293 110.77 18C112.141 17.707 113.143 17.4551 113.776 17.2441V18.2285C113.776 19.4121 113.712 20.2148 113.583 20.6367C113.395 21.2812 113.003 21.8262 112.405 22.2715C111.596 22.8574 110.747 23.1504 109.856 23.1504ZM130.667 20.4434V26.209H125.728V7.54102H130.316V10.1953C131.101 8.94141 131.807 8.11523 132.434 7.7168C133.061 7.31836 133.773 7.11914 134.57 7.11914C135.695 7.11914 136.779 7.42969 137.822 8.05078L136.292 12.3574C135.46 11.8184 134.687 11.5488 133.972 11.5488C133.281 11.5488 132.695 11.7393 132.214 12.1201C131.734 12.501 131.356 13.1895 131.08 14.1855C130.805 15.1816 130.667 17.2676 130.667 20.4434ZM147.453 26.6309C148.906 26.6309 150.207 26.3848 151.355 25.8926L150.933 22.0605C150.066 22.377 149.404 22.5352 148.947 22.5352C148.619 22.5352 148.341 22.4531 148.112 22.2891C147.884 22.125 147.737 21.917 147.673 21.665C147.608 21.4131 147.576 20.5254 147.576 19.002V11.4785H150.951V7.54102H147.576V0.949219L142.619 3.83203V7.54102H140.351V11.4785H142.619L142.62 19.9377C142.626 21.506 142.678 22.5593 142.777 23.0977C142.906 23.9062 143.138 24.5479 143.472 25.0225C143.806 25.4971 144.33 25.8838 145.045 26.1826C145.76 26.4814 146.562 26.6309 147.453 26.6309ZM161.435 33.4863C160.691 33.6855 159.85 33.7852 158.913 33.7852C157.963 33.7852 157.032 33.6855 156.118 33.4863L155.678 29.6191C156.452 29.7715 157.149 29.8477 157.77 29.8477C158.918 29.8477 159.768 29.5107 160.319 28.8369C160.87 28.1631 161.291 27.3047 161.584 26.2617L154.483 7.54102H159.739L164.204 20.7949L168.563 7.54102H173.678L167.086 25.5059L165.909 28.7578C165.475 29.8477 165.062 30.6797 164.669 31.2539C164.277 31.8281 163.826 32.2939 163.316 32.6514C162.806 33.0088 162.179 33.2871 161.435 33.4863ZM230.917 25.2158C229.552 26.1592 227.844 26.6309 225.793 26.6309C222.547 26.6309 220.145 25.5703 218.586 23.4492C217.356 21.75 216.74 19.6055 216.74 17.0156C216.74 13.9219 217.549 11.499 219.166 9.74707C220.783 7.99512 222.828 7.11914 225.301 7.11914C228.078 7.11914 230.27 8.03613 231.875 9.87012C233.481 11.7041 234.248 14.5137 234.178 18.2988H221.803C221.838 19.7637 222.236 20.9033 222.998 21.7178C223.76 22.5322 224.709 22.9395 225.846 22.9395C226.619 22.9395 227.27 22.7285 227.797 22.3066C228.324 21.8848 228.723 21.2051 228.992 20.2676L233.914 21.0938C233.281 22.8984 232.282 24.2725 230.917 25.2158ZM229.274 15.2754H221.891C221.879 13.9277 222.225 12.8613 222.928 12.0762C223.631 11.291 224.522 10.8984 225.6 10.8984C226.608 10.8984 227.463 11.2705 228.166 12.0146C228.869 12.7588 229.238 13.8457 229.274 15.2754ZM245.374 20.4434V26.209H240.434V7.54102H245.022V10.1953C245.807 8.94141 246.513 8.11523 247.14 7.7168C247.767 7.31836 248.479 7.11914 249.276 7.11914C250.401 7.11914 251.485 7.42969 252.528 8.05078L250.999 12.3574C250.167 11.8184 249.393 11.5488 248.678 11.5488C247.987 11.5488 247.401 11.7393 246.921 12.1201C246.44 12.501 246.062 13.1895 245.787 14.1855C245.511 15.1816 245.374 17.2676 245.374 20.4434ZM266.677 26.209L274.095 7.54102H269.015L265.464 17.0684C265.277 17.5957 265.101 18.123 264.937 18.6504C264.866 18.9082 264.697 19.4414 264.427 20.25L263.407 17.0684L259.892 7.54102H254.706L262.23 26.209H266.677ZM284.5 0.439453V5.00977H279.56V0.439453H284.5ZM284.5 26.209V7.54102H279.56V26.209H284.5ZM305.627 24.9258C304.198 26.0625 302.282 26.6309 299.879 26.6309C297.149 26.6309 294.972 25.7695 293.349 24.0469C291.726 22.3242 290.914 19.9395 290.914 16.8926C290.914 13.8105 291.729 11.4111 293.358 9.69434C294.987 7.97754 297.19 7.11914 299.967 7.11914C302.241 7.11914 304.048 7.6084 305.39 8.58691C306.732 9.56543 307.696 11.0566 308.282 13.0605L303.412 13.9395C303.248 12.9668 302.876 12.2344 302.296 11.7422C301.716 11.25 300.963 11.0039 300.037 11.0039C298.807 11.0039 297.826 11.4287 297.093 12.2783C296.361 13.1279 295.994 14.5488 295.994 16.541C295.994 18.7559 296.367 20.3203 297.111 21.2344C297.855 22.1484 298.854 22.6055 300.108 22.6055C301.045 22.6055 301.813 22.3389 302.41 21.8057C303.008 21.2725 303.43 20.3555 303.676 19.0547L308.528 19.8809C308.024 22.1074 307.057 23.7891 305.627 24.9258ZM322.079 26.6309C324.13 26.6309 325.838 26.1592 327.203 25.2158C328.568 24.2725 329.567 22.8984 330.2 21.0938L325.278 20.2676C325.009 21.2051 324.61 21.8848 324.083 22.3066C323.556 22.7285 322.905 22.9395 322.132 22.9395C320.995 22.9395 320.046 22.5322 319.284 21.7178C318.522 20.9033 318.124 19.7637 318.089 18.2988H330.464C330.534 14.5137 329.767 11.7041 328.161 9.87012C326.556 8.03613 324.364 7.11914 321.587 7.11914C319.114 7.11914 317.069 7.99512 315.452 9.74707C313.835 11.499 313.026 13.9219 313.026 17.0156C313.026 19.6055 313.642 21.75 314.872 23.4492C316.431 25.5703 318.833 26.6309 322.079 26.6309ZM318.177 15.2754H325.559C325.524 13.8457 325.155 12.7588 324.452 12.0146C323.749 11.2705 322.893 10.8984 321.886 10.8984C320.808 10.8984 319.917 11.291 319.214 12.0762C318.511 12.8613 318.165 13.9277 318.177 15.2754Z" fill="url(#paint0_linear_0_1267)"/>
<defs>
<linearGradient id="paint0_linear_0_1267" x1="-130.558" y1="13.8113" x2="-125.879" y2="69.7895" gradientUnits="userSpaceOnUse">
<stop stop-color="#0093ED"/>
<stop offset="1" stop-color="#00F3AB"/>
</linearGradient>
</defs>
</svg>
