<?xml version="1.0" encoding="UTF-8"?>
<svg width="72px" height="72px" viewBox="0 0 72 72" version="1.1" xmlns="http://www.w3.org/2000/svg" xmlns:xlink="http://www.w3.org/1999/xlink">
    <title>Group 5 Copy 3</title>
    <g id="staker---staking-flow" stroke="none" stroke-width="1" fill="none" fill-rule="evenodd">
        <g id="Group-5-Copy-3">
            <circle id="Oval" stroke="#1A2835" fill="#00F3AB" cx="36" cy="36" r="35.5"></circle>
            <g id="Group-58" transform="translate(13.000000, 9.000000)">
                <path d="M23.0000126,8.86567164 C32.6362275,8.86567164 40.4482759,16.8042744 40.4482759,26.5969764 C40.4482759,36.3898068 32.6362275,44.3283582 23.0000126,44.3283582 C13.3635705,44.3283582 5.55172414,36.3898068 5.55172414,26.5969764 C5.55172414,16.8042744 13.3635705,8.86567164 23.0000126,8.86567164 Z" id="Path" fill-opacity="0.3" fill="#1A2835"></path>
                <path d="M23.383269,1.43665244 C23.1442965,1.21120432 23.021045,1.20693018 23.0004612,1.20693018 C22.9796264,1.20693018 22.8563748,1.21120432 22.6176534,1.43665244 C22.3724054,1.66804831 22.0794633,2.06734587 21.7636782,2.68341453 C21.1333632,3.9131058 20.5301585,5.77176539 20.010293,8.17009979 C19.4256639,10.8670834 18.9635333,14.1635799 18.6720973,17.8537351 C20.0798259,18.5523771 21.527467,19.3119127 22.9999591,20.1275014 C24.4727023,19.311784 25.9205944,18.5521196 27.3285741,17.8533746 C27.0371381,14.1633739 26.5750075,10.8670062 25.9903784,8.17009979 C25.4705129,5.77176539 24.8673082,3.9131058 24.2369932,2.68341453 C23.9214591,2.06734587 23.628266,1.66804831 23.383269,1.43665244 Z M21.7679456,20.8197322 C20.6865449,20.2303383 19.6212096,19.6727945 18.5779642,19.1490061 C18.4988924,20.3369859 18.4373922,21.5615276 18.3944675,22.8162715 C18.9462128,22.4774299 19.5059907,22.1396182 20.0732994,21.8039693 C20.640608,21.4682174 21.2059084,21.1400611 21.7679456,20.8197322 Z M17.5364509,17.299075 C18.3811634,7.1800952 20.5090727,0 23.0004612,0 C25.4915987,0 27.619257,7.17994071 28.4641954,17.2987403 C37.4352021,12.9895039 44.5647151,11.2885499 45.8105348,13.5001867 C47.0561035,15.7118492 42.0542489,21.1907071 33.9279296,27.0000386 C42.0542489,32.8095246 47.0561035,38.2881508 45.8105348,40.4998906 C44.5647151,42.7116303 37.4352021,41.0107278 28.4641954,36.7013112 C27.619257,46.8202138 25.4915987,54 23.0004612,54 C20.5090727,54 18.3811634,46.8199563 17.5364509,36.7010537 C8.56511781,41.0104703 1.43517814,42.7116303 0.189483896,40.4998906 C-1.05616014,38.2881508 3.94576978,32.8095246 12.0720138,27.0000386 C3.94576978,21.1907071 -1.05616014,15.7118492 0.189483896,13.5001867 C1.43517814,11.2884984 8.56511781,12.9895812 17.5364509,17.299075 Z M13.1088833,26.2687999 C10.1368137,24.1649435 7.58256942,22.1064034 5.59623621,20.2387321 C3.82994845,18.5779704 2.56126064,17.1130984 1.83749032,15.9387135 C1.47486464,15.3503495 1.2841134,14.890596 1.21121675,14.5573931 C1.14022787,14.2329188 1.19826404,14.1218426 1.20833,14.1039479 L1.20833,14.1039221 C1.21849637,14.0858986 1.28358625,13.9786074 1.59359782,13.8792722 C1.91184289,13.777285 2.39588767,13.7167518 3.07437371,13.7444822 C4.42858455,13.7998401 6.30065277,14.1937048 8.58688138,14.9313291 C11.1577935,15.7607959 14.1738169,16.9989324 17.4371468,18.5852571 C17.3235846,20.1840694 17.2415006,21.8486675 17.1942584,23.5634739 C15.7687825,24.4631036 14.4031502,25.3683978 13.1088833,26.2687999 Z M13.1088833,27.7312774 C10.1368137,29.8351337 7.58256942,31.8936738 5.59623621,33.7614224 C3.82994845,35.4221583 2.56126064,36.8869531 1.83749032,38.0613123 C1.47486464,38.6496505 1.2841134,39.109507 1.21121675,39.4426841 C1.14022787,39.7671069 1.19826404,39.8783376 1.20833,39.8961036 C1.21844617,39.9141271 1.28348584,40.0214956 1.59359782,40.1208823 C1.91184289,40.2228438 2.39588767,40.2833512 3.07437371,40.2555435 C4.42858455,40.2001857 6.30065277,39.8065011 8.58688138,39.0688254 C11.1577935,38.2392299 14.1738169,37.0012736 17.4371468,35.4149489 C17.3235846,33.8160078 17.2415006,32.1514097 17.1942584,30.4366033 C15.7687825,29.5369737 14.4031502,28.6316795 13.1088833,27.7312774 Z M17.1630564,28.9967839 C16.124229,28.3314596 15.1203186,27.664333 14.1560195,27.0000386 C15.1203186,26.3357443 16.124229,25.6686176 17.1630564,25.0032933 C17.1526139,25.6626956 17.1472922,26.3285349 17.1472922,27.0000386 C17.1472922,27.6715424 17.1526139,28.3376391 17.1630564,28.9967839 Z M18.3543041,29.7493934 C18.3342223,28.846159 18.3239305,27.9290208 18.3239305,27.0000386 C18.3239305,26.0713139 18.3342223,25.1539182 18.3543041,24.2506839 C19.1073686,23.7813007 19.8770005,23.3137198 20.6614428,22.8492287 C21.446387,22.3847376 22.2265619,21.9351803 22.9999591,21.5012004 C23.7733564,21.9351803 24.5535313,22.3847376 25.3384755,22.8492287 C26.1234198,23.3137198 26.8933028,23.7815582 27.6463673,24.2511988 C27.666449,25.1541757 27.6767409,26.0713139 27.6767409,27.0000386 C27.6767409,27.9287633 27.666449,28.8459015 27.6463673,29.7488784 C26.8933028,30.2185191 26.1234198,30.6863574 25.3384755,31.1508485 C24.5535313,31.6153396 23.7733564,32.064897 22.9999591,32.4990056 C22.2265619,32.064897 21.446387,31.6153396 20.6614428,31.1508485 C19.8770005,30.6863574 19.1073686,30.2187766 18.3543041,29.7493934 Z M18.3944675,31.1838058 C18.4373922,32.4384982 18.4988924,33.6630656 18.5779642,34.8510711 C19.6212096,34.32736 20.6865449,33.7696617 21.7679456,33.1802936 C21.2059084,32.8599904 20.640608,32.5319628 20.0732994,32.196211 C19.5059907,31.8604591 18.9462128,31.5226474 18.3944675,31.1838058 Z M22.9999591,33.8726531 C21.527467,34.6880873 20.0798259,35.4476487 18.6720973,36.1464452 C18.9635333,39.8366261 19.4256639,43.1331226 20.010293,45.8299517 C20.5301585,48.2283633 21.1333632,50.0871002 21.7636782,51.3168172 C22.0794633,51.9327056 22.3724054,52.3320547 22.6176534,52.5635278 C22.8563748,52.7888214 22.9796264,52.7931986 23.0004612,52.7931986 C23.021045,52.7931986 23.1442965,52.7888214 23.383269,52.5635278 C23.628266,52.3320547 23.9214591,51.9327056 24.2369932,51.3168172 C24.8673082,50.0871002 25.4705129,48.2283633 25.9903784,45.8299517 C26.5750075,43.1331226 27.0371381,39.8366261 27.3285741,36.1467026 C25.9205944,35.4479062 24.4727023,34.6883448 22.9999591,33.8726531 Z M28.5635999,35.4152064 C31.8266285,37.0012736 34.8424009,38.2394874 37.4131122,39.0688254 C39.6994161,39.8065011 41.5712835,40.2001857 42.9255446,40.2555435 C43.6040557,40.2833512 44.0880252,40.2228438 44.4063205,40.1208823 C44.7165831,40.0214956 44.7815976,39.9141271 44.7916385,39.8961036 C44.8016794,39.8783376 44.8596653,39.7673644 44.7886262,39.4426841 C44.71583,39.109507 44.5250537,38.6496505 44.1625786,38.0613123 C43.4386326,36.8869531 42.1699698,35.4221583 40.4037825,33.7614224 C38.4174493,31.8936738 35.8630544,29.8351337 32.8909597,27.7312774 C31.5969438,28.631422 30.2316378,29.5367162 28.8063377,30.4360884 C28.7591457,32.1511522 28.6770616,33.8162653 28.5635999,35.4152064 Z M32.8909597,26.2687999 C35.8630544,24.1649435 38.4174493,22.1064034 40.4037825,20.2387321 C42.1699698,18.5779704 43.4386326,17.1130984 44.1625786,15.9387135 C44.5250537,15.3503495 44.71583,14.890596 44.7886262,14.5573931 C44.8596653,14.2328158 44.8016794,14.1217654 44.7916385,14.1039221 C44.7815976,14.0859759 44.7165831,13.9786589 44.4063205,13.8792722 C44.0880252,13.777285 43.6040557,13.7167518 42.9255446,13.7444822 C41.5712835,13.7998401 39.6994161,14.1937048 37.4131122,14.9313291 C34.8424009,15.7607444 31.8266285,16.9987522 28.5635999,18.5848966 C28.6770616,20.1839664 28.7591457,21.8488478 28.8063377,23.5639889 C30.2316378,24.4633611 31.5969438,25.3686552 32.8909597,26.2687999 Z M28.8377154,25.0038083 C29.8761914,25.6688751 30.8797754,26.3360017 31.843949,27.0000386 C30.8797754,27.6640755 29.8761914,28.3312021 28.8377154,28.9962689 C28.8480073,28.3371241 28.8532787,27.6715424 28.8532787,27.0000386 C28.8532787,26.3285349 28.8480073,25.6629531 28.8377154,25.0038083 Z M27.6062039,22.8167864 C27.5635302,21.5616821 27.5017789,20.3368829 27.4227071,19.1486199 C26.3792107,19.672537 25.3136244,20.2302096 24.2319727,20.8197322 C24.7942609,21.1400611 25.3593103,21.4682174 25.9266189,21.8039693 C26.4941786,22.1398756 27.0542076,22.4776873 27.6062039,22.8167864 Z M27.4227071,34.8515861 C26.3792107,34.3276175 25.3136244,33.7699192 24.2319727,33.1802936 C24.7942609,32.8599904 25.3593103,32.5319628 25.9266189,32.196211 C26.4941786,31.8602016 27.0542076,31.5223899 27.6062039,31.1832908 C27.5635302,32.4384982 27.5017789,33.6633231 27.4227071,34.8515861 Z" id="Shape" stroke="#000000" fill="#000302"></path>
                <path d="M6.74137931,19.3432836 C7.83644071,19.3432836 8.72413793,20.245394 8.72413793,21.3581816 C8.72413793,22.4710512 7.83644071,23.3731343 6.74137931,23.3731343 C5.64631791,23.3731343 4.75862069,22.4710512 4.75862069,21.3581816 C4.75862069,20.245394 5.64631791,19.3432836 6.74137931,19.3432836 Z" id="Path" fill="#000302"></path>
                <path d="M36.0862069,12.0895522 C37.1813196,12.0895522 38.0689655,12.9916688 38.0689655,14.1044913 C38.0689655,15.2172865 37.1813196,16.119403 36.0862069,16.119403 C34.9910942,16.119403 34.1034483,15.2172865 34.1034483,14.1044913 C34.1034483,12.9916688 34.9910942,12.0895522 36.0862069,12.0895522 Z" id="Path" fill="#000302"></path>
                <path d="M19.4311689,41.9104478 C20.526087,41.9104478 21.4137931,42.812437 21.4137931,43.9253731 C21.4137931,45.038036 20.526087,45.9402985 19.4311689,45.9402985 C18.335982,45.9402985 17.4482759,45.038036 17.4482759,43.9253731 C17.4482759,42.812437 18.335982,41.9104478 19.4311689,41.9104478 Z" id="Path" fill="#000302"></path>
                <path d="M22.999873,23.3731343 C24.7521233,23.3731343 26.1724138,24.8164665 26.1724138,26.5968859 C26.1724138,28.3775634 24.7521233,29.8208955 22.999873,29.8208955 C21.2478767,29.8208955 19.8275862,28.3775634 19.8275862,26.5968859 C19.8275862,24.8164665 21.2478767,23.3731343 22.999873,23.3731343 Z" id="Path" fill="#000302"></path>
            </g>
        </g>
    </g>
</svg>