<?xml version="1.0" encoding="UTF-8"?>
<svg width="72px" height="72px" viewBox="0 0 72 72" version="1.1" xmlns="http://www.w3.org/2000/svg" xmlns:xlink="http://www.w3.org/1999/xlink">
    <title>Group 5 Copy 6</title>
    <g id="staker---staking-flow" stroke="none" stroke-width="1" fill="none" fill-rule="evenodd">
        <g id="Group-5-Copy-6">
            <circle id="Oval" stroke="#1A2835" fill="#00F3AB" cx="36" cy="36" r="35.5"></circle>
            <path d="M22.2983587,36 L16.646737,41.646737 L11,36 L16.646737,30.353263 L22.2983587,36 Z M36,22.2885893 L45.6766315,31.9701055 L51.3233685,26.3233685 L36,11 L20.6766315,26.3233685 L26.3233685,31.9701055 L36,22.2885893 Z M55.3581477,30.353263 L49.7114107,36 L55.3581477,41.646737 L61,36 L55.3581477,30.353263 Z M36,49.7114107 L26.3233685,40.0347792 L20.6766315,45.6766315 L36,61 L51.3233685,45.6766315 L45.6766315,40.0347792 L36,49.7114107 Z M36,41.646737 L41.646737,36 L36,30.353263 L30.353263,36 L36,41.646737 Z" id="path16" fill="#000000" fill-rule="nonzero"></path>
        </g>
    </g>
</svg>