<svg width="182" height="182" viewBox="0 0 182 182" fill="none" xmlns="http://www.w3.org/2000/svg">
<path fill-rule="evenodd" clip-rule="evenodd" d="M1 90.9959C1 41.3671 41.3767 1 91 1C140.623 1 181 41.3744 181 90.9959C181 140.618 140.632 181 91 181C41.3767 181 1 140.626 1 90.9959Z" fill="#154746" stroke="#00F3AB" stroke-opacity="0.5" stroke-width="1.5"/>
<path d="M121.471 65.6996L80.8056 105.594L62.0212 87.1684C59.7325 84.923 56.0149 84.923 53.7235 87.1671C51.426 89.4254 51.426 93.0621 53.7202 95.3172L76.6521 117.812C77.7581 118.905 79.2547 119.5 80.8044 119.5C82.3467 119.5 83.8336 118.91 84.9499 117.823L129.777 73.8368C132.004 71.6556 132.071 68.1608 129.985 65.9057L129.783 65.698C127.492 63.4337 123.759 63.4337 121.471 65.6996Z" fill="#00F3AB"/>
</svg>
