<svg fill="none" height="182" viewBox="0 0 182 182" width="182" xmlns="http://www.w3.org/2000/svg"><path clip-rule="evenodd" d="m1 91c0 49.63 40.3781 90 90 90 49.631 0 90-40.37 90-90 0-49.6213-40.369-90-90-90-49.6219 0-90 40.3787-90 90zm60.117-22.0741c-2.0817-2.0826-2.1534-5.4123-.2153-7.5809l.2154-.228c2.1564-2.1563 5.6523-2.156 7.8082.0009l22.0747 22.0746 22.073-22.0736c2.081-2.082 5.413-2.1538 7.581-.2155l.228.2154c2.156 2.1561 2.156 5.6528 0 7.809l-22.073 22.0737 22.074 22.0735c2.082 2.082 2.154 5.412.215 7.579l-.215.228c-2.157 2.157-5.653 2.157-7.809 0l-22.074-22.0745-22.0731 22.0745c-2.0817 2.081-5.4131 2.152-7.5804.215l-.2276-.216c-2.1564-2.156-2.157-5.653-.0009-7.808l22.0715-22.0745z" fill="#402e4c" fill-rule="evenodd"/><path d="m60.9017 61.345-.545-.5153-.0073.0077-.007.0078zm.2153 7.5809-.5304.5302.0001.0002zm.0001-7.8089-.5303-.5303-.0074.0075-.0073.0076zm7.8082.0009-.5304.5302.0001.0001zm22.0747 22.0746-.5303.5304.5303.5303.5303-.5304zm22.073-22.0736.531.5303v-.0001zm7.581-.2155.515-.5449-.007-.0072-.008-.007zm.228.2154.53-.5304-.007-.0074-.008-.0072zm0 7.809-.531-.5303zm-22.073 22.0737-.5303-.5303-.5303.5303.5303.5304zm22.074 22.0735-.531.53zm.215 7.579.545.516.007-.008.007-.008zm-.215.228.53.53.007-.007.007-.007zm-7.809 0 .531-.53zm-22.074-22.0745.5303-.5303-.5303-.5304-.5303.5304zm-22.0731 22.0745.5302.531h.0002zm-7.5804.215-.5153.545.0076.007.0078.007zm-.2276-.216-.5304.531.0074.007.0076.007zm-.0009-7.808.5302.531h.0002zm22.0715-22.0745.5304.5303.5302-.5303-.5303-.5303zm7.8105 89.2515c-49.2078 0-89.25-40.034-89.25-89.25h-1.5c0 50.044 40.7139 90.75 90.75 90.75zm89.25-89.25c0 49.216-40.034 89.25-89.25 89.25v1.5c50.045 0 90.75-40.706 90.75-90.75zm-89.25-89.25c49.216 0 89.25 40.0429 89.25 89.25h1.5c0-50.0354-40.705-90.75-90.75-90.75zm-89.25 89.25c0-49.2071 40.0423-89.25 89.25-89.25v-1.5c-50.0362 0-90.75 40.7145-90.75 90.75zm58.5924-30.1548c-2.2017 2.4636-2.1203 6.2454.2442 8.6109l1.0609-1.0604c-1.7989-1.7997-1.8611-4.6773-.1866-6.551zm.2297-.2434-.2154.2279 1.09 1.0305.2155-.2279zm8.8836-.0141c-2.4487-2.4499-6.4196-2.4503-8.8689-.001l1.0607 1.0607c1.8634-1.8635 4.8843-1.8632 6.7474.0007zm22.0746 22.0745-22.0747-22.0746-1.0606 1.0606 22.0747 22.0747zm21.0127-22.0736-22.0733 22.0736 1.0606 1.0606 22.0737-22.0736zm8.611-.2443c-2.463-2.202-6.247-2.1208-8.611.2444l1.061 1.0604c1.798-1.7988 4.677-1.8612 6.55-.1866zm.243.2295-.228-.2153-1.03 1.0898.227.2154zm.015 8.8843c2.449-2.4491 2.449-6.4206 0-8.8697l-1.061 1.0607c1.864 1.8633 1.864 4.8851 0 6.7484zm-22.0727 22.0737 22.0727-22.0737-1.061-1.0606-22.0723 22.0737zm22.0737 21.0132-22.0737-22.0738-1.0606 1.0607 22.0733 22.0731zm.244 8.609c2.203-2.462 2.121-6.244-.244-8.609l-1.061 1.06c1.799 1.8 1.862 4.677.187 6.549zm-.23.244.216-.228-1.09-1.031-.215.228zm-8.883.014c2.449 2.451 6.42 2.451 8.869 0l-1.061-1.06c-1.863 1.864-4.884 1.864-6.747 0zm-22.0743-22.0742 22.0743 22.0752 1.061-1.061-22.0747-22.0748zm-21.0124 22.0752 22.073-22.0752-1.0606-1.0606-22.0731 22.0748zm-8.6107.243c2.4622 2.201 6.2458 2.12 8.6105-.243l-1.0604-1.061c-1.7987 1.798-4.6779 1.86-6.5503.186zm-.2431-.23.2277.216 1.0306-1.09-.2276-.216zm-.0157-8.883c-2.4493 2.448-2.4483 6.42.0007 8.869l1.0607-1.061c-1.8636-1.864-1.8638-4.885-.001-6.747zm22.0713-22.0748-22.0715 22.0748 1.0608 1.061 22.0715-22.0752zm-22.0724-21.0119 22.0725 22.0725 1.0606-1.0606-22.0725-22.0726z" fill="#ff52c4" fill-opacity=".5"/></svg>
