<svg width="19" height="19" viewBox="0 0 19 19" fill="none" xmlns="http://www.w3.org/2000/svg">
<path d="M9.99545 1.72787C12.5107 1.72407 14.8884 2.82441 16.4436 4.71187H15.3801C15.0572 4.71187 14.7587 4.87635 14.5967 5.14343C14.4351 5.40991 14.4351 5.74062 14.5967 6.00709C14.7587 6.27417 15.0572 6.43919 15.3801 6.43919H18.0948C18.5944 6.43919 18.9996 6.05215 18.9996 5.57553V2.43357C18.9996 1.95695 18.5944 1.57045 18.0943 1.57045C17.5947 1.57045 17.1901 1.95695 17.1901 2.43357V2.90584C15.3041 1.04498 12.7074 -0.0037896 9.99545 1.02899e-05C4.47831 0.000553142 0 4.24992 0 9.50028C0 14.7512 4.47831 19 9.99545 19C13.8786 19 17.2449 16.8949 18.9001 13.8202C19.0478 13.546 19.0307 13.2155 18.8554 12.9571C18.6775 12.6965 18.371 12.5466 18.0496 12.563C17.7285 12.5773 17.4393 12.7558 17.2896 13.032C15.8836 15.6393 13.0678 17.277 9.99545 17.2727C5.4702 17.2727 1.80943 13.7893 1.80943 9.50028C1.80943 5.21183 5.46964 1.72787 9.99545 1.72787Z" fill="#00F3AB"/>
</svg>
