<svg width="33" height="28" viewBox="0 0 33 28" fill="none" xmlns="http://www.w3.org/2000/svg">
<path fill-rule="evenodd" clip-rule="evenodd" d="M32.7786 10.7536L32.8615 10.638L32.936 10.4728C32.936 10.4488 32.9501 10.4247 32.9651 10.399C32.9759 10.3806 32.9871 10.3614 32.994 10.3407C32.9979 10.2884 32.9979 10.236 32.994 10.1837C32.9987 10.1315 32.9987 10.079 32.994 10.0268C32.9995 9.92227 32.9995 9.81751 32.994 9.71296C33.002 9.66095 33.002 9.60804 32.994 9.55604C32.998 9.5038 32.998 9.45134 32.994 9.39911C32.9812 9.35108 32.9645 9.30413 32.9443 9.2587C32.9258 9.20227 32.9037 9.1471 32.878 9.09351L32.8366 8.9944L32.7289 8.82922L26.0998 0.569893L26.0252 0.4873L25.934 0.388188L25.7849 0.272558L25.6772 0.198224L25.5114 0.107371L25.3789 0.0578153L25.2131 0H7.80345L7.64601 0.0578153L7.51343 0.107371L7.3477 0.198224L7.23998 0.272558L7.09911 0.388188L6.99967 0.4873L6.92509 0.569893L0.295993 8.82922L0.18827 8.9944L0.121979 9.11003C0.0963382 9.16362 0.0741952 9.21879 0.0556877 9.27522C0.0354543 9.32065 0.0188305 9.3676 0.00596941 9.41563C0.00197512 9.46786 0.00197512 9.52032 0.00596941 9.57255C-0.0019898 9.62456 -0.0019898 9.67747 0.00596941 9.72948C0.00045662 9.83403 0.00045662 9.93879 0.00596941 10.0433C0.0012565 10.0955 0.0012565 10.1481 0.00596941 10.2003C0.00209932 10.2525 0.00209932 10.305 0.00596941 10.3572C0.00596941 10.3895 0.0235558 10.4183 0.0403962 10.4458L0.0403978 10.4458C0.0494051 10.4606 0.0581989 10.4749 0.0639741 10.4893L0.138551 10.6545L0.221415 10.7702L0.329138 10.9188L15.2446 27.4375L15.3109 27.4953L15.3689 27.5614L15.4518 27.6274L15.5678 27.71L15.7418 27.8091L15.8495 27.8587C15.9192 27.887 15.9913 27.9092 16.065 27.9248H16.1561C16.2689 27.9611 16.3858 27.9833 16.5041 27.9908C16.6115 28.0031 16.7199 28.0031 16.8273 27.9908H16.9185C16.9921 27.9752 17.0642 27.9531 17.1339 27.9248L17.2416 27.8752L17.4156 27.7761L17.5317 27.6935L17.6145 27.6274L17.6725 27.5614L17.7388 27.5035L32.6543 10.9849L32.7786 10.7536ZM16.5041 23.8612L3.7597 9.76252L9.0464 3.21288H23.9619L29.2154 9.76252L16.5041 23.8612ZM22.3333 8H10.6667C9.55556 8 9 8.5 9 9.5C9 10.5 9.55556 11 10.6667 11H22.3333C23.4444 11 24 10.5 24 9.5C24 8.5 23.4444 8 22.3333 8Z" fill="#0095EB"/>
</svg>
