<svg width="100" height="97" viewBox="0 0 100 97" fill="none" xmlns="http://www.w3.org/2000/svg">
<path fill-rule="evenodd" clip-rule="evenodd" d="M50.2392 20.4169H49.9951H49.751C47.8371 20.4462 46.2845 18.8945 46.2845 16.9913V3.4256C46.2845 1.55177 47.8078 0.0195191 49.6826 0H50.3076C52.1824 0.0195191 53.7057 1.54201 53.7057 3.4256V16.9913C53.7057 18.9042 52.1433 20.4462 50.2392 20.4169ZM79.7481 16.9718C79.8555 17.1475 79.9629 17.3329 80.0605 17.5086C80.9882 19.1482 80.4316 21.227 78.8009 22.1737L67.0247 28.9565C65.3842 29.913 63.2653 29.3469 62.3377 27.6878C62.2595 27.5414 62.1814 27.395 62.0935 27.2584C61.1073 25.6188 61.6639 23.4912 63.3239 22.5348L75.0806 15.7421C76.7113 14.8052 78.7911 15.3517 79.7481 16.9718ZM83.5465 38.7551H16.4535C15.2134 38.7551 14.0709 39.4285 13.4655 40.5118L0.429646 63.8859C0.14647 64.3934 0 64.9692 0 65.5548V93.5744C0 95.4678 1.53305 97 3.4274 97H96.5726C98.4669 97 100 95.4678 100 93.5744V65.5548C100 64.9692 99.8535 64.4032 99.5704 63.8859L86.5345 40.5118C85.9291 39.4285 84.7866 38.7551 83.5465 38.7551ZM65.7553 64.9497C64.1441 64.9497 62.7478 66.072 62.406 67.6531C61.1659 73.3624 56.0785 77.6371 49.9854 77.6371C43.8922 77.6371 38.8048 73.3624 37.5647 67.6531C37.2229 66.0818 35.8266 64.9497 34.2154 64.9497H11.62C9.04209 64.9497 7.39186 62.217 8.58315 59.9333L16.5609 44.7279C17.1565 43.5958 18.3185 42.8931 19.5977 42.8931H80.373C81.6424 42.8931 82.8142 43.5958 83.4098 44.7279L91.3876 59.9333C92.5788 62.217 90.9286 64.9497 88.3507 64.9497H65.7553ZM36.6566 22.5445L24.8999 15.7616C23.2692 14.8247 21.1893 15.3713 20.2324 16.9913C20.1572 17.1144 20.0867 17.2374 20.0144 17.3638C19.9834 17.4179 19.9521 17.4726 19.9199 17.5281C18.9923 19.1677 19.5489 21.2465 21.1796 22.1932L32.9362 28.9761C34.5865 29.9227 36.7054 29.3664 37.6233 27.6976C37.6623 27.6244 37.7038 27.5536 37.7453 27.4828C37.7868 27.4121 37.8283 27.3413 37.8674 27.2681C38.8634 25.6285 38.3068 23.501 36.6566 22.5445Z" fill="#5B6872"/>
</svg>
