<svg width="26" height="30" viewBox="0 0 26 30" fill="none" xmlns="http://www.w3.org/2000/svg">
<g filter="url(#filter0_b_0_2952)">
<path d="M13.0563 0C17.7899 0 22.6749 3.35336 23.1811 8.21123C23.2637 9.20826 23.1811 10.2472 23.2637 11.2577C23.5313 12.5616 24.1508 13.7742 25.0562 14.7712C25.619 15.5901 25.9433 16.5422 25.9998 17.5258V17.8327C26.0071 19.1614 25.5206 20.4474 24.631 21.451C23.4992 22.6341 21.9684 23.3764 20.3211 23.5409C15.4469 24.153 10.5128 24.153 5.6386 23.5409C3.97233 23.3887 2.42041 22.6454 1.27515 21.451C0.413452 20.4377 -0.0392199 19.1505 0.00266729 17.8327V17.5258C0.0561972 16.5452 0.371259 15.5946 0.920322 14.7712C1.82901 13.775 2.45635 12.5639 2.74034 11.2577C2.8214 10.2472 2.74034 9.22173 2.8214 8.21123C3.3414 3.35336 8.1285 0 12.9187 0H13.0563Z" fill="white" fill-opacity="0.25"/>
</g>
<path fill-rule="evenodd" clip-rule="evenodd" d="M14.3512 25.9463C15.1063 25.9671 15.8478 26.1354 16.5254 26.4414H16.5664C17.1313 26.8621 17.2276 27.618 16.7837 28.1464C15.971 29.2085 14.6768 29.8768 13.2634 29.9641C11.8098 30.1232 10.3459 29.7547 9.18549 28.9377C8.59095 28.5656 8.20361 27.9743 8.125 27.3189C8.125 26.6264 8.83301 26.3037 9.4848 26.1688C10.2492 26.0214 11.0282 25.9469 11.8094 25.9463H14.3512Z" fill="white" fill-opacity="0.5"/>
<defs>
<filter id="filter0_b_0_2952" x="-13.5914" y="-13.5914" width="53.1828" height="51.1828" filterUnits="userSpaceOnUse" color-interpolation-filters="sRGB">
<feFlood flood-opacity="0" result="BackgroundImageFix"/>
<feGaussianBlur in="BackgroundImage" stdDeviation="6.7957"/>
<feComposite in2="SourceAlpha" operator="in" result="effect1_backgroundBlur_0_2952"/>
<feBlend mode="normal" in="SourceGraphic" in2="effect1_backgroundBlur_0_2952" result="shape"/>
</filter>
</defs>
</svg>
