<svg width="24" height="24" viewBox="0 0 24 24" fill="none" xmlns="http://www.w3.org/2000/svg">
<path fill-rule="evenodd" clip-rule="evenodd" d="M23.439 5.439L18.561 0.561C18.336 0.336 18.06 0.171 17.76 0.081V0H0.96C0.429 0 0 0.429 0 0.96V23.04C0 23.571 0.429 24 0.96 24H23.04C23.571 24 24 23.571 24 23.04V6.795C24 6.285 23.799 5.799 23.439 5.439ZM8.16 2.16H15.84V5.28H8.16V2.16ZM21.84 21.84H2.16V2.16H6.24V6.24C6.24 6.771 6.669 7.2 7.2 7.2H16.8C17.331 7.2 17.76 6.771 17.76 6.24V2.814L21.84 6.894V21.84ZM12 9.9C9.615 9.9 7.68 11.835 7.68 14.22C7.68 16.605 9.615 18.54 12 18.54C14.385 18.54 16.32 16.605 16.32 14.22C16.32 11.835 14.385 9.9 12 9.9ZM12 16.62C10.674 16.62 9.6 15.546 9.6 14.22C9.6 12.894 10.674 11.82 12 11.82C13.326 11.82 14.4 12.894 14.4 14.22C14.4 15.546 13.326 16.62 12 16.62Z" fill="#1A2835"/>
</svg>
