<svg width="24" height="24" viewBox="0 0 24 24" fill="none" xmlns="http://www.w3.org/2000/svg">
<path fill-rule="evenodd" clip-rule="evenodd" d="M12 0C5.374 0 0 5.374 0 12C0 18.626 5.374 24 12 24C18.626 24 24 18.626 24 12C24 5.374 18.626 0 12 0ZM12 2C17.514 2 22 6.486 22 12C22 17.514 17.514 22 12 22C6.486 22 2 17.514 2 12C2 6.486 6.486 2 12 2ZM11.5 14C11.224 14 11 13.776 11 13.5V6.5C11 6.224 11.224 6 11.5 6H12.5C12.776 6 13 6.224 13 6.5V13.5C13 13.776 12.776 14 12.5 14H11.5ZM10.8004 17.5992C10.8004 17.9292 11.0704 18.1992 11.4004 18.1992C12.3904 18.1992 13.1984 17.3912 13.1984 16.4012C13.1984 16.0712 12.9304 15.8012 12.6004 15.8012H11.4004C11.0704 15.8012 10.8004 16.0712 10.8004 16.4012V17.5992Z" fill="#FF52C4"/>
</svg>
