<svg width="22" height="22" viewBox="0 0 22 22" fill="none" xmlns="http://www.w3.org/2000/svg">
<path fill-rule="evenodd" clip-rule="evenodd" d="M12.0008 10.9307L15.2949 7.71699C15.5664 7.45207 15.5664 7.02243 15.2949 6.75751C15.0234 6.49259 14.583 6.49259 14.3116 6.75751L11.0175 9.97126L7.72313 6.75739C7.45158 6.49235 7.01133 6.49235 6.73979 6.75727C6.46825 7.02231 6.46825 7.4517 6.73979 7.71674L10.034 10.9305L6.73992 14.1444C6.46837 14.4092 6.4685 14.8388 6.74004 15.1037C7.01146 15.3685 7.45184 15.3686 7.72338 15.1038L11.0175 11.8901L14.3117 15.1038C14.5832 15.3689 15.0235 15.3689 15.295 15.1038C15.5667 14.8389 15.5666 14.4095 15.295 14.1446L12.0008 10.9307Z" fill="#5B6872"/>
<path fill-rule="evenodd" clip-rule="evenodd" d="M11 20.2079C5.92274 20.2079 1.7913 16.0774 1.7913 10.9996C1.7913 5.92257 5.92274 1.79123 11 1.79123C16.0781 1.79123 20.2087 5.92257 20.2087 10.9996C20.2087 16.0774 16.0781 20.2079 11 20.2079ZM11 0C4.93486 0 0 4.9338 0 10.9996C0 17.0653 4.93486 22 11 22C17.066 22 22 17.0644 22 10.9996C22 4.93468 17.0651 0 11 0Z" fill="#5B6872"/>
</svg>
