<svg fill="none" height="20" viewBox="0 0 18 20" width="18" xmlns="http://www.w3.org/2000/svg"><path clip-rule="evenodd" d="m15.7164.508475c-.4605-.338983-.9659-.508475-1.516-.508475h-7.96373c-.30703 0-.61407.073114-.9211.219342-.30704.146228-.58529.332336-.83476.558325-.24947.225993-.45096.478563-.60448.757723-.15352.27917-.23027.55168-.23027.81755 0 .06647-.0064.113-.01919.13958h9.36463c.742.14623 1.3369.46527 1.7846.95713.4478.49186.7228 1.19641.8252 2.11366v11.90429h.0767c.2303 0 .4798-.0499.7484-.1496.2687-.0997.5182-.2326.7484-.3988.2303-.1661.4254-.3655.5853-.5982.1599-.2326.2399-.4885.2399-.7677v-10.5882c0-.47856-.0959-1.00697-.2878-1.58524-.1919-.57826-.4574-1.11665-.7964-1.61515-.339-.49851-.7388-.917252-1.1994-1.256235zm-2.7537 3.499505c-.3007-.17282-.6429-.25923-1.0267-.25923h-9.6908c-.29424 0-.57569.08309-.84435.24926-.26865.16616-.505328.37554-.710018.62811-.204691.25258-.371003.52842-.498934.82752-.1279321.2991-.191898.58823-.191898.8674v11.10666c0 .3191.0831556.6348.249467.9472.166311.3124.3742.5882.623667.8275.249466.2393.518126.432.805966.5783.28785.1462.55331.2193.79638.2193h9.46052c.2943 0 .5885-.0598.8828-.1795.2942-.1196.5597-.2858.7963-.4985.2367-.2127.4286-.4719.5757-.7776.1472-.3058.2207-.6514.2207-1.0369v-11.26622c0-.22599-.0576-.48521-.1727-.77767s-.2814-.56497-.4989-.81755c-.2175-.25257-.4766-.46527-.7772-.63808zm-1.3049 11.84442c-.2367.2393-.5213.359-.854.359h-7.19612c-.33263 0-.61727-.1197-.85395-.359-.23667-.2392-.35501-.5317-.35501-.8773 0-.3457.11834-.6414.35501-.8874.23668-.2459.52132-.3689.85395-.3689h7.19612c.3327 0 .6173.123.854.3689.2367.246.355.5417.355.8874 0 .3456-.1183.6381-.355.8773zm-.854-4.6261c.3327 0 .6173-.1196.854-.3589s.355-.5317.355-.87737c0-.34563-.1183-.64141-.355-.88734s-.5213-.36889-.854-.36889h-7.19612c-.33263 0-.61727.12296-.85395.36889-.23667.24593-.35501.54171-.35501.88734 0 .34567.11834.63807.35501.87737.23668.2393.52132.3589.85395.3589z" fill="#5b6872" fill-rule="evenodd"/></svg>