<?xml version="1.0" encoding="UTF-8"?>
<svg width="95px" height="84px" viewBox="0 0 95 84" version="1.1" xmlns="http://www.w3.org/2000/svg" xmlns:xlink="http://www.w3.org/1999/xlink">
    <title>Combined Shape</title>
    <g id="staker---staking-flow" stroke="none" stroke-width="1" fill="none" fill-rule="evenodd" opacity="0.5">
        <path d="M67.6803165,0.47523972 C68.8114577,-0.15841324 70.1885504,-0.15841324 71.3196917,0.47523972 L93.1559429,13.1598609 C94.3056427,13.7932232 95.014519,15.0113845 95.0001152,16.3285787 L95.0001152,41.6783213 C94.9937317,42.9898952 94.2905702,44.1982361 93.1559429,44.8470391 L71.3196917,57.5219105 C70.7584974,57.8436319 70.1218171,58.0085881 69.4757416,58 C68.8389107,57.9945437 68.2164956,57.8086453 67.6803165,57.4634111 L47.7293866,45.8845888 C46.9729318,45.9675235 46.1964867,45.8101817 45.5168028,45.412919 L25.5245492,33.8026893 L7.32771642,44.4275129 L7.32771642,65.5503258 L25.5245492,76.1361235 L43.721382,65.5503258 L43.721382,59.5988636 C43.721382,57.5782272 45.3507819,55.9401777 47.3607486,55.9401777 C49.3707152,55.9401777 51.0001152,57.5782272 51.0001152,59.5988636 L51.0001152,67.6479724 C50.9939538,68.9604333 50.290794,70.1695915 49.1561694,70.8188334 L27.31997,83.5022776 C26.7606874,83.8310333 26.12389,84.0028705 25.4760243,84 C24.8506146,84.0052814 24.2336623,83.8544153 23.6806034,83.5608165 L1.84440406,70.8773724 C0.691605299,70.2419301 -0.0177742814,69.018323 0.000115150779,67.6967548 L0.000115150779,42.3298664 C0.00661965031,41.0174055 0.709779462,39.8082472 1.84440406,39.1590053 L23.6806034,26.4755612 C24.811742,25.8414796 26.1888314,25.8414796 27.31997,26.4755612 L47.2708455,38.0282906 C48.013531,37.9462407 48.7879393,38.0936217 49.4834404,38.4998536 L69.4757416,50.1022358 L87.6726177,39.5235932 L87.6726177,18.4150576 L69.4757416,7.79741544 L51.2788656,18.4150576 L51.2788656,23.9725012 C51.2630279,25.9851444 49.6428649,27.6128031 47.6394904,27.628714 C45.6361158,27.6128031 44.0159528,25.9851444 44.0001152,23.9725012 L44.0001152,16.3188289 C44.0062765,15.007255 44.709438,13.7989142 45.8440652,13.1501111 Z" id="Combined-Shape" fill="#00F3AB" fill-rule="nonzero" transform="translate(47.500058, 42.000067) scale(-1, 1) translate(-47.500058, -42.000067) "></path>
    </g>
</svg>