<?xml version="1.0" encoding="UTF-8"?>
<svg width="78px" height="78px" viewBox="0 0 78 78" version="1.1" xmlns="http://www.w3.org/2000/svg" xmlns:xlink="http://www.w3.org/1999/xlink">
    <title>Group 6</title>
    <g id="staker---staking-flow" stroke="none" stroke-width="1" fill="none" fill-rule="evenodd">
        <g id="cosmos-logo-horizontal-dark" transform="translate(1.000000, 1.000000)">
            <path d="M37.9999365,0 C58.9867462,0 76,17.0131586 76,37.9999365 C76,58.9867462 58.9867462,76 37.9999365,76 C17.0131586,76 0,58.9867462 0,37.9999365 C0,17.0131586 17.0131586,0 37.9999365,0 Z" id="Path" stroke="#1A2835" fill="#171717"></path>
            <path d="M48.6079983,17.2376199 C49.1624793,16.9207934 49.8375247,16.9207934 50.3920057,17.2376199 L61.0960505,23.5799305 C61.6596288,23.8966116 62.0071171,24.5056923 62.0000564,25.1642894 L62.0000564,37.8391607 C61.9969273,38.4949476 61.6522403,39.099118 61.0960505,39.4235196 L50.3920057,45.7609552 C50.1169105,45.921816 49.8048123,46.004294 49.4881086,46 C49.1759366,45.9972718 48.8708312,45.9043226 48.6079983,45.7317055 L37.9039535,39.3942698 C37.5979981,39.2119917 37.3650275,38.9504051 37.2154163,38.6496723 L27.5120339,32.9013446 L18.5920179,38.2137565 L18.5920179,48.7751629 L27.5120339,54.0680617 L36.43205,48.7751629 L36.43205,45.7994318 C36.43205,44.7891136 37.2307755,43.9700889 38.2160532,43.9700889 C39.201331,43.9700889 40.0000564,44.7891136 40.0000564,45.7994318 L40.0000564,49.8239862 C39.9970362,50.4802167 39.65235,51.0847958 39.0961614,51.4094167 L28.3921421,57.7511388 C28.117984,57.9155166 27.8058284,58.0014352 27.4882472,58 C27.1816738,58.0026407 26.8792462,57.9272077 26.6081389,57.7804083 L15.9041196,51.4386862 C15.3390222,51.1209651 14.9912871,50.5091615 15.0000564,49.8483774 L15.0000564,37.1649332 C15.0032449,36.5087027 15.3479311,35.9041236 15.9041196,35.5795027 L26.6081389,29.2377806 C27.1626186,28.9207398 27.8376625,28.9207398 28.3921421,29.2377806 L39.0961614,35.5599897 C39.395531,35.7384652 39.6317661,35.9989817 39.7842171,36.3046063 L49.4881086,42.0511179 L58.4081459,36.7617966 L58.4081459,26.2075288 L49.4881086,20.8987077 L40.5680714,26.2075288 L40.5680714,28.9862506 C40.5603078,29.9925722 39.7661103,30.8064015 38.7840639,30.814357 C37.8020175,30.8064015 37.00782,29.9925722 37.0000564,28.9862506 L37.0000564,25.1594144 C37.0030767,24.5036275 37.3477637,23.8994571 37.9039535,23.5750555 Z" id="Combined-Shape" stroke="#FFFFFF" fill="#FFFFFF" fill-rule="nonzero" transform="translate(38.500028, 37.500034) scale(-1, 1) translate(-38.500028, -37.500034) "></path>
            <g id="a-vuesax-outline-polygon-matic" transform="translate(38.500028, 37.500034) scale(-1, 1) translate(-38.500028, -37.500034) translate(14.999894, 17.000000)"></g>
        </g>
    </g>
</svg>