<?xml version="1.0" encoding="UTF-8"?>
<svg width="72px" height="72px" viewBox="0 0 72 72" version="1.1" xmlns="http://www.w3.org/2000/svg" xmlns:xlink="http://www.w3.org/1999/xlink">
    <title>Group 5</title>
    <defs>
        <circle id="path-1" cx="36" cy="36" r="36"></circle>
        <filter x="-2.8%" y="-2.8%" width="105.6%" height="105.6%" filterUnits="objectBoundingBox" id="filter-2">
            <feGaussianBlur stdDeviation="1.5" in="SourceAlpha" result="shadowBlurInner1"></feGaussianBlur>
            <feOffset dx="-1" dy="0" in="shadowBlurInner1" result="shadowOffsetInner1"></feOffset>
            <feComposite in="shadowOffsetInner1" in2="SourceAlpha" operator="arithmetic" k2="-1" k3="1" result="shadowInnerInner1"></feComposite>
            <feColorMatrix values="0 0 0 0 0.906702899   0 0 0 0 0.906702899   0 0 0 0 0.906702899  0 0 0 0.417149257 0" type="matrix" in="shadowInnerInner1"></feColorMatrix>
        </filter>
    </defs>
    <g id="staker---staking-flow" stroke="none" stroke-width="1" fill="none" fill-rule="evenodd">
        <g id="Group-4" transform="translate(-86.000000, -66.000000)">
            <g id="Group-5" transform="translate(86.000000, 66.000000)">
                <g id="Oval">
                    <use fill-opacity="0.3" fill="#000000" fill-rule="evenodd" xlink:href="#path-1"></use>
                    <use fill="black" fill-opacity="1" filter="url(#filter-2)" xlink:href="#path-1"></use>
                </g>
                <path d="M44.2150385,18.2048447 C44.7029818,17.9317184 45.2970217,17.9317184 45.784965,18.2048447 L55.2045244,23.6723539 C55.7004733,23.9453548 56.0062631,24.4704244 56.0000497,25.0381805 L56.0000497,35.9647937 C55.997296,36.5301272 55.6939715,37.0509638 55.2045244,37.3306203 L45.784965,42.7939269 C45.5428812,42.9326 45.2682348,43.0037018 44.9895356,43 C44.7148242,42.9976481 44.4463314,42.9175195 44.2150385,42.7687117 L35.2543953,37.571399 C35.0393111,37.5484295 34.8279395,37.4804944 34.6346992,37.3676375 L26.0105899,32.3632281 L18.1609757,36.9428935 L18.1609757,46.0475542 L26.0105899,50.6103981 L33.860204,46.0475542 L33.860204,43.4822688 C33.860204,42.6113048 34.5630824,41.905249 35.4301268,41.905249 C36.2971713,41.905249 37.0000497,42.6113048 37.0000497,43.4822688 L37.0000497,46.9517122 C36.9973918,47.5174282 36.694068,48.038617 36.2046221,48.3184627 L26.7850851,53.7854645 C26.5438259,53.9271695 26.269129,54.0012373 25.9896575,54 C25.719873,54.0022765 25.4537367,53.937248 25.2151623,53.8106968 L15.7956253,48.343695 C15.2983395,48.0697975 14.9923327,47.5423806 15.0000497,46.9727391 L15.0000497,36.0387355 C15.0028555,35.4730196 15.3061794,34.9518307 15.7956253,34.6719851 L25.2151623,29.2049833 C25.7031044,28.9316722 26.297143,28.9316722 26.7850851,29.2049833 L35.7506644,34.3912934 C35.9612208,34.4143452 36.1704962,34.48101 36.3654057,34.5947645 L44.9895356,39.5957913 L52.8391684,35.0360315 L52.8391684,25.9375248 L44.9895356,21.3609549 L37.1399028,25.9375248 L37.1399028,28.3329746 C37.1330708,29.2004933 36.434177,29.9020703 35.5699762,29.9089285 C34.7057754,29.9020703 34.0068816,29.2004933 34.0000497,28.3329746 L34.0000497,25.033978 C34.0027075,24.4686444 34.3060321,23.9478078 34.7954791,23.6681513 Z" id="Combined-Shape" stroke="#FFFFFF" fill="#FFFFFF" fill-rule="nonzero" transform="translate(35.500025, 36.000029) scale(-1, 1) translate(-35.500025, -36.000029) "></path>
            </g>
        </g>
    </g>
</svg>