<?xml version="1.0" encoding="UTF-8"?>
<svg width="72px" height="72px" viewBox="0 0 72 72" version="1.1" xmlns="http://www.w3.org/2000/svg" xmlns:xlink="http://www.w3.org/1999/xlink">
    <title>Group 5</title>
    <g id="staker---staking-flow" stroke="none" stroke-width="1" fill="none" fill-rule="evenodd">
        <g id="Group-5">
            <circle id="Oval" stroke="#1A2835" fill="#00F3AB" cx="36" cy="36" r="35.5"></circle>
            <path d="M45.6079983,15.2376199 C46.1624793,14.9207934 46.8375247,14.9207934 47.3920057,15.2376199 L58.0960505,21.5799305 C58.6596288,21.8966116 59.0071171,22.5056923 59.0000564,23.1642894 L59.0000564,35.8391607 C58.9969273,36.4949476 58.6522403,37.099118 58.0960505,37.4235196 L47.3920057,43.7609552 C47.1169105,43.921816 46.8048123,44.004294 46.4881086,44 C46.1759366,43.9972718 45.8708312,43.9043226 45.6079983,43.7317055 L34.9039535,37.3942698 C34.5979981,37.2119917 34.3650275,36.9504051 34.2154163,36.6496723 L24.5120339,30.9013446 L15.5920179,36.2137565 L15.5920179,46.7751629 L24.5120339,52.0680617 L33.43205,46.7751629 L33.43205,43.7994318 C33.43205,42.7891136 34.2307755,41.9700889 35.2160532,41.9700889 C36.201331,41.9700889 37.0000564,42.7891136 37.0000564,43.7994318 L37.0000564,47.8239862 C36.9970362,48.4802167 36.65235,49.0847958 36.0961614,49.4094167 L25.3921421,55.7511388 C25.117984,55.9155166 24.8058284,56.0014352 24.4882472,56 C24.1816738,56.0026407 23.8792462,55.9272077 23.6081389,55.7804083 L12.9041196,49.4386862 C12.3390222,49.1209651 11.9912871,48.5091615 12.0000564,47.8483774 L12.0000564,35.1649332 C12.0032449,34.5087027 12.3479311,33.9041236 12.9041196,33.5795027 L23.6081389,27.2377806 C24.1626186,26.9207398 24.8376625,26.9207398 25.3921421,27.2377806 L36.0961614,33.5599897 C36.395531,33.7384652 36.6317661,33.9989817 36.7842171,34.3046063 L46.4881086,40.0511179 L55.4081459,34.7617966 L55.4081459,24.2075288 L46.4881086,18.8987077 L37.5680714,24.2075288 L37.5680714,26.9862506 C37.5603078,27.9925722 36.7661103,28.8064015 35.7840639,28.814357 C34.8020175,28.8064015 34.00782,27.9925722 34.0000564,26.9862506 L34.0000564,23.1594144 C34.0030767,22.5036275 34.3477637,21.8994571 34.9039535,21.5750555 Z" id="Combined-Shape" stroke="#000000" fill="#000000" fill-rule="nonzero" transform="translate(35.500028, 35.500034) scale(-1, 1) translate(-35.500028, -35.500034) "></path>
        </g>
    </g>
</svg>