<svg width="221" height="27" viewBox="0 0 221 27" fill="none" xmlns="http://www.w3.org/2000/svg">
<path fill-rule="evenodd" clip-rule="evenodd" d="M21.6035 23.124C19.3418 25.4736 16.3184 26.6484 12.5332 26.6484C8.70117 26.6484 5.6543 25.4795 3.39258 23.1416C1.13086 20.8037 0 17.584 0 13.4824C0 10.8574 0.392578 8.6543 1.17773 6.87305C1.76367 5.56055 2.56348 4.38281 3.57715 3.33984C4.59082 2.29688 5.70117 1.52344 6.9082 1.01953C8.51367 0.339844 10.3652 0 12.4629 0C16.2598 0 19.2979 1.17773 21.5771 3.5332C23.8564 5.88867 24.9961 9.16406 24.9961 13.3594C24.9961 17.5195 23.8652 20.7744 21.6035 23.124ZM7.38281 19.9424C8.73047 21.4482 10.4414 22.2012 12.5156 22.2012C14.5898 22.2012 16.292 21.4541 17.6221 19.96C18.9521 18.4658 19.6172 16.2246 19.6172 13.2363C19.6172 10.2832 18.9697 8.08008 17.6748 6.62695C16.3799 5.17383 14.6602 4.44727 12.5156 4.44727C10.3711 4.44727 8.64258 5.18262 7.33008 6.65332C6.01758 8.12402 5.36133 10.3418 5.36133 13.3066C5.36133 16.2246 6.03516 18.4365 7.38281 19.9424ZM39.7427 26.209L42.9068 14.2031L46.1236 26.209H50.8697L56.8638 7.54102H51.9947L48.4263 19.7754L45.315 7.54102H40.5513L37.3345 19.7754L33.8365 7.54102H29.0377L34.9439 26.209H39.7427ZM66.8116 17.7539V26.209H61.8722V7.54102H66.4601V10.2832C68.089 8.17383 70.1398 7.11914 72.6124 7.11914C73.7023 7.11914 74.6983 7.31543 75.6007 7.70801C76.503 8.10059 77.1857 8.60156 77.6485 9.21094C78.1114 9.82031 78.4337 10.5117 78.6153 11.2852C78.797 12.0586 78.8878 13.166 78.8878 14.6074V26.209H73.9483V16.6816C73.9483 14.666 73.8429 13.3623 73.6319 12.7705C73.421 12.1787 73.0782 11.7188 72.6036 11.3906C72.129 11.0625 71.5577 10.8984 70.8898 10.8984C70.0343 10.8984 69.2667 11.1328 68.587 11.6016C67.9073 12.0703 67.4415 12.6914 67.1896 13.4648C66.9376 14.2383 66.8116 15.668 66.8116 17.7539ZM108.135 26.666C110.373 26.666 112.242 26.3525 113.742 25.7256C115.242 25.0986 116.403 24.1406 117.223 22.8516C118.043 21.5625 118.453 20.1797 118.453 18.7031C118.453 17.0742 118.111 15.7061 117.425 14.5986C116.739 13.4912 115.79 12.6182 114.577 11.9795C113.364 11.3408 111.492 10.7227 108.961 10.125C106.43 9.52734 104.836 8.95312 104.18 8.40234C103.664 7.96875 103.406 7.44727 103.406 6.83789C103.406 6.16992 103.682 5.63672 104.233 5.23828C105.088 4.61719 106.272 4.30664 107.783 4.30664C109.248 4.30664 110.347 4.59668 111.079 5.17676C111.812 5.75684 112.289 6.70898 112.512 8.0332L117.715 7.80469C117.633 5.4375 116.775 3.54492 115.14 2.12695C113.505 0.708984 111.071 0 107.836 0C105.856 0 104.165 0.298828 102.765 0.896484C101.364 1.49414 100.292 2.36426 99.5481 3.50684C98.8039 4.64941 98.4319 5.87695 98.4319 7.18945C98.4319 9.22852 99.2229 10.957 100.805 12.375C101.93 13.3828 103.887 14.2324 106.676 14.9238C108.844 15.4629 110.233 15.8379 110.842 16.0488C111.733 16.3652 112.357 16.7373 112.714 17.165C113.072 17.5928 113.25 18.1113 113.25 18.7207C113.25 19.6699 112.825 20.499 111.976 21.208C111.126 21.917 109.864 22.2715 108.188 22.2715C106.606 22.2715 105.349 21.873 104.417 21.0762C103.486 20.2793 102.867 19.0312 102.563 17.332L97.5002 17.8242C97.8401 20.707 98.883 22.9014 100.629 24.4072C102.375 25.9131 104.877 26.666 108.135 26.666ZM137.972 25.2158C136.607 26.1592 134.899 26.6309 132.848 26.6309C129.602 26.6309 127.2 25.5703 125.641 23.4492C124.411 21.75 123.796 19.6055 123.796 17.0156C123.796 13.9219 124.604 11.499 126.221 9.74707C127.839 7.99512 129.884 7.11914 132.356 7.11914C135.134 7.11914 137.325 8.03613 138.93 9.87012C140.536 11.7041 141.303 14.5137 141.233 18.2988H128.858C128.893 19.7637 129.292 20.9033 130.053 21.7178C130.815 22.5322 131.764 22.9395 132.901 22.9395C133.675 22.9395 134.325 22.7285 134.852 22.3066C135.38 21.8848 135.778 21.2051 136.048 20.2676L140.97 21.0938C140.337 22.8984 139.338 24.2725 137.972 25.2158ZM136.329 15.2754H128.946C128.934 13.9277 129.28 12.8613 129.983 12.0762C130.686 11.291 131.577 10.8984 132.655 10.8984C133.663 10.8984 134.518 11.2705 135.221 12.0146C135.925 12.7588 136.294 13.8457 136.329 15.2754ZM152.429 20.4434V26.209H147.49V7.54102H152.077V10.1953C152.863 8.94141 153.569 8.11523 154.196 7.7168C154.823 7.31836 155.535 7.11914 156.331 7.11914C157.456 7.11914 158.54 7.42969 159.583 8.05078L158.054 12.3574C157.222 11.8184 156.449 11.5488 155.734 11.5488C155.042 11.5488 154.456 11.7393 153.976 12.1201C153.495 12.501 153.118 13.1895 152.842 14.1855C152.567 15.1816 152.429 17.2676 152.429 20.4434ZM173.732 26.209L181.15 7.54102H176.07L172.519 17.0684C172.332 17.5957 172.156 18.123 171.992 18.6504C171.922 18.9082 171.752 19.4414 171.482 20.25L170.463 17.0684L166.947 7.54102H161.762L169.285 26.209H173.732ZM199.351 25.2158C197.986 26.1592 196.278 26.6309 194.227 26.6309C190.981 26.6309 188.579 25.5703 187.02 23.4492C185.79 21.75 185.174 19.6055 185.174 17.0156C185.174 13.9219 185.983 11.499 187.6 9.74707C189.217 7.99512 191.262 7.11914 193.735 7.11914C196.512 7.11914 198.704 8.03613 200.309 9.87012C201.915 11.7041 202.682 14.5137 202.612 18.2988H190.237C190.272 19.7637 190.67 20.9033 191.432 21.7178C192.194 22.5322 193.143 22.9395 194.28 22.9395C195.053 22.9395 195.704 22.7285 196.231 22.3066C196.758 21.8848 197.157 21.2051 197.426 20.2676L202.348 21.0938C201.715 22.8984 200.716 24.2725 199.351 25.2158ZM197.707 15.2754H190.325C190.313 13.9277 190.659 12.8613 191.362 12.0762C192.065 11.291 192.956 10.8984 194.034 10.8984C195.041 10.8984 195.897 11.2705 196.6 12.0146C197.303 12.7588 197.672 13.8457 197.707 15.2754ZM213.808 20.4434V26.209H208.868V7.54102H213.456V10.1953C214.241 8.94141 214.947 8.11523 215.574 7.7168C216.201 7.31836 216.913 7.11914 217.71 7.11914C218.835 7.11914 219.919 7.42969 220.962 8.05078L219.433 12.3574C218.601 11.8184 217.827 11.5488 217.112 11.5488C216.421 11.5488 215.835 11.7393 215.355 12.1201C214.874 12.501 214.496 13.1895 214.221 14.1855C213.945 15.1816 213.808 17.2676 213.808 20.4434Z" fill="url(#paint0_linear_0_1297)"/>
<defs>
<linearGradient id="paint0_linear_0_1297" x1="-87.2955" y1="10.901" x2="-82.9479" y2="54.9633" gradientUnits="userSpaceOnUse">
<stop stop-color="#0093ED"/>
<stop offset="1" stop-color="#00F3AB"/>
</linearGradient>
</defs>
</svg>
