<svg height="177" viewBox="0 0 277 177" width="277" xmlns="http://www.w3.org/2000/svg" xmlns:xlink="http://www.w3.org/1999/xlink"><linearGradient id="a" x1="50%" x2="50%" y1="4.383356%" y2="64.7876%"><stop offset="0" stop-color="#00f3ab"/><stop offset="1" stop-color="#00f3ab" stop-opacity="0"/></linearGradient><g fill="none" fill-rule="evenodd"><path d="m43.4376102 177v-133.7411067c0-1.5546772 1.8297894-2.9733202 5.4893683-4.2559289s7.9158283-2.2931489 12.7687481-3.0316205c4.8529198-.7384717 9.0296131-1.1077075 12.5300799-1.1077075v-34.8636364c-7.9556063 0-14.5587595 1.90447958-19.8094596 5.71343874-5.2507002 3.80895915-8.9102791 9.09486166-10.9787367 15.85770746v-19.47233197h-43.4376102v174.90118577z" fill="url(#a)"/><path d="m83.2631336 112v-58.1727273h8.4142858v-13.8272727h-31v13.8272727h8.4142857v58.1727273zm33.8936614 0c12.347083 0 18.520624-6.374021 18.520624-19.1220627v-24.7558746c0-5.8120105-1.636194-10.4520235-4.908584-13.9200392-3.272389-3.4680157-7.809736-5.2020235-13.61204-5.2020235-5.774805 0-10.298402 1.7340078-13.570791 5.2020235-3.27239 3.4680157-4.9085846 8.1080287-4.9085846 13.9200392v24.7558746c0 12.7480417 6.1597916 19.1220627 18.4793756 19.1220627zm.020624-11c-1.25 0-2.145833-.442629-2.6875-1.3278856-.541666-.8852571-.8125-2.0088526-.8125-3.3707865v-29.9489275c0-3.5682669 1.166667-5.3524004 3.5-5.3524004 2.333334 0 3.5 1.7841335 3.5 5.3524004v29.9489275c0 1.3619339-.270833 2.4855294-.8125 3.3707865-.541666.8852566-1.4375 1.3278856-2.6875 1.3278856zm44.911274 11v-28.9227273l9.078288 28.9227273h15.510438l-11.643006-34.6909091 9.159708-26.6727273h-15.10334l-7.002088 21.15v-31.7863636h-14.411274v72zm49.221379 0c4.625851 0 8.278912-.788185 10.959184-2.364556s4.585034-3.920366 5.714286-7.031984c1.129252-3.1116193 1.693877-6.9703007 1.693877-11.5760449v-3.4954308h-14.530612v5.9216711c0 2.1383812-.190476 3.872389-.571428 5.2020235-.380953 1.3296344-1.333334 1.9944521-2.857143 1.9944521-1.061225 0-1.829932-.34269-2.306123-1.0280683-.47619-.6853786-.782313-1.5558094-.918367-2.6112925-.136055-1.055483-.204082-2.1315274-.204082-3.2281331v-11.9255875h21.22449c.101069-1.7310705.155213-4.9986479.162432-9.8027322l.000833-5.6182861c0-11.6240209-5.877551-17.4360313-17.632653-17.4360313-5.714285 0-10.204081 1.473564-13.469387 4.4206919-3.265307 2.9471279-4.89796 7.2855744-4.89796 13.0153394v24.7969974c0 4.3590079.557823 8.0874674 1.67347 11.1853783 1.115646 3.097912 2.965986 5.469321 5.55102 7.11423s6.054422 2.467363 10.408163 2.467363zm3.367347-37h-7v-8.559322c0-2.3728814.322549-4.0395481.967647-5 .645098-.960452 1.557844-1.440678 2.738236-1.440678 1.098039 0 1.921568.5014124 2.470588 1.5042373.54902 1.0028248.823529 2.6483051.823529 4.9364407zm40.628831 36v-43.146438c0-1.1451187.068105-2.2970536.204314-3.4558047.136208-1.1587511.46992-2.1266491 1.001135-2.903694.531214-.7770448 1.355278-1.1655673 2.47219-1.1655673 1.198638 0 2.043133.5112138 2.533485 1.5336412s.735528 2.1334653.735528 3.3331135v45.8047493h14.424517v-47.317942c0-4.5532102-.960272-8.1385224-2.880817-10.7559366-1.920545-2.6174143-5.005675-3.9261214-9.255391-3.9261214-2.642452 0-4.706016.8247581-6.190693 2.4742744-1.484676 1.6495163-2.499432 3.6466579-3.044268 5.9914248v-7.8113456h-14.628831v61.3456464z" fill="#00f3ab" fill-rule="nonzero"/></g></svg>