<svg width="34" height="30" viewBox="0 0 34 30" fill="none" xmlns="http://www.w3.org/2000/svg">
<path fill-rule="evenodd" clip-rule="evenodd" d="M22.2728 0H11.7268C9.42217 0 7.29068 1.18423 6.13767 3.10535L0.866045 11.8946C-0.288828 13.8152 -0.288828 16.1848 0.866925 18.1069L6.13744 26.8943C7.28984 28.8164 9.42116 30 11.7268 30H22.2728C24.5798 30 26.7113 28.8167 27.864 26.894L33.1352 18.1054C34.2883 16.1843 34.2883 13.8157 33.135 11.8942L27.8639 3.10573C26.7105 1.18399 24.5788 0 22.2728 0ZM11.7268 3.10559H22.2728C23.4262 3.10559 24.4926 3.69792 25.0692 4.65862L30.3404 13.4471C30.917 14.4079 30.917 15.5921 30.3406 16.5526L25.069 25.3418C24.4928 26.3028 23.4272 26.8944 22.2728 26.8944H11.7268C10.5739 26.8944 9.50845 26.3027 8.93247 25.342L3.66093 16.5529C3.08287 15.5916 3.08287 14.4084 3.66005 13.4485L8.93233 4.65824C9.50862 3.69804 10.575 3.10559 11.7268 3.10559ZM17.0005 8.01273C12.9906 8.01273 9.73961 11.1414 9.73961 15.0003C9.73961 18.8593 12.9906 21.9879 17.0005 21.9879C21.0104 21.9879 24.2614 18.8593 24.2614 15.0003C24.2614 11.1414 21.0104 8.01273 17.0005 8.01273ZM17.0005 11.1183C19.2281 11.1183 21.0343 12.8565 21.0343 15.0003C21.0343 17.1441 19.2281 18.8823 17.0005 18.8823C14.7729 18.8823 12.9667 17.1441 12.9667 15.0003C12.9667 12.8565 14.7729 11.1183 17.0005 11.1183Z" fill="#5B6872"/>
</svg>
