<svg width="154" height="60" viewBox="0 0 154 60" fill="none" xmlns="http://www.w3.org/2000/svg">
<path fill-rule="evenodd" clip-rule="evenodd" d="M43.6 22.8672C42.2667 23.4245 40.6052 23.7031 38.6156 23.7031C35.7198 23.7031 33.4958 23.0339 31.9437 21.6953C30.3917 20.3568 29.4646 18.4062 29.1625 15.8438L33.6625 15.4062C33.9333 16.9167 34.4828 18.026 35.3109 18.7344C36.1391 19.4427 37.2562 19.7969 38.6625 19.7969C40.1521 19.7969 41.2745 19.4818 42.0297 18.8516C42.7849 18.2214 43.1625 17.4844 43.1625 16.6406C43.1625 16.099 43.0036 15.638 42.6859 15.2578C42.3682 14.8776 41.8135 14.5469 41.0219 14.2656C40.4802 14.0781 39.2458 13.7448 37.3187 13.2656C34.8396 12.651 33.1 11.8958 32.1 11C30.6937 9.73958 29.9906 8.20312 29.9906 6.39062C29.9906 5.22396 30.3213 4.13281 30.9828 3.11719C31.6443 2.10156 32.5974 1.32812 33.8422 0.796875C35.087 0.265625 36.5896 0 38.35 0C41.225 0 43.3891 0.630208 44.8422 1.89062C46.2953 3.15104 47.0583 4.83333 47.1312 6.9375L42.5062 7.14062C42.3083 5.96354 41.8838 5.11719 41.2328 4.60156C40.5818 4.08594 39.6052 3.82812 38.3031 3.82812C36.9594 3.82812 35.9073 4.10417 35.1469 4.65625C34.6573 5.01042 34.4125 5.48438 34.4125 6.07812C34.4125 6.61979 34.6417 7.08333 35.1 7.46875C35.6833 7.95833 37.1 8.46875 39.35 9C41.6 9.53125 43.2641 10.0807 44.3422 10.6484C45.4203 11.2161 46.2641 11.9922 46.8734 12.9766C47.4828 13.9609 47.7875 15.1771 47.7875 16.625C47.7875 17.9375 47.4229 19.1667 46.6937 20.3125C45.9646 21.4583 44.9333 22.3099 43.6 22.8672ZM72.2431 20.5547C70.2327 22.6432 67.5452 23.6875 64.1806 23.6875C60.7744 23.6875 58.066 22.6484 56.0556 20.5703C54.0452 18.4922 53.04 15.6302 53.04 11.9844C53.04 9.65104 53.3889 7.69271 54.0869 6.10938C54.6077 4.94271 55.3186 3.89583 56.2197 2.96875C57.1207 2.04167 58.1077 1.35417 59.1806 0.90625C60.6077 0.302083 62.2535 0 64.1181 0C67.4931 0 70.1936 1.04688 72.2197 3.14062C74.2457 5.23438 75.2587 8.14583 75.2587 11.875C75.2587 15.5729 74.2535 18.4661 72.2431 20.5547ZM64.165 19.7344C62.3212 19.7344 60.8004 19.0651 59.6025 17.7266C58.4046 16.388 57.8056 14.4219 57.8056 11.8281C57.8056 9.19271 58.3889 7.22135 59.5556 5.91406C60.7223 4.60677 62.2587 3.95312 64.165 3.95312C66.0712 3.95312 67.5999 4.59896 68.7509 5.89062C69.902 7.18229 70.4775 9.14062 70.4775 11.7656C70.4775 14.4219 69.8863 16.4141 68.704 17.7422C67.5218 19.0703 66.0087 19.7344 64.165 19.7344ZM97.4175 19.4375V23.2969H81.2925V0.578125H85.9175V19.4375H97.4175ZM113.217 23.6875C116.581 23.6875 119.269 22.6432 121.279 20.5547C123.29 18.4661 124.295 15.5729 124.295 11.875C124.295 8.14583 123.282 5.23438 121.256 3.14062C119.23 1.04688 116.529 0 113.154 0C111.29 0 109.644 0.302083 108.217 0.90625C107.144 1.35417 106.157 2.04167 105.256 2.96875C104.355 3.89583 103.644 4.94271 103.123 6.10938C102.425 7.69271 102.076 9.65104 102.076 11.9844C102.076 15.6302 103.081 18.4922 105.092 20.5703C107.102 22.6484 109.811 23.6875 113.217 23.6875ZM108.639 17.7266C109.837 19.0651 111.357 19.7344 113.201 19.7344C115.045 19.7344 116.558 19.0703 117.74 17.7422C118.923 16.4141 119.514 14.4219 119.514 11.7656C119.514 9.14062 118.938 7.18229 117.787 5.89062C116.636 4.59896 115.107 3.95312 113.201 3.95312C111.295 3.95312 109.759 4.60677 108.592 5.91406C107.425 7.22135 106.842 9.19271 106.842 11.8281C106.842 14.4219 107.441 16.388 108.639 17.7266ZM13.125 59.2969L21.3281 36.3906H16.4219L10.8125 53.3438L5.01562 36.3906H0L8.1875 59.2969H13.125ZM31.2837 59.125C30.4296 59.4896 29.5181 59.6719 28.5494 59.6719C26.841 59.6719 25.4947 59.2083 24.5103 58.2812C23.5259 57.3542 23.0337 56.1823 23.0337 54.7656C23.0337 53.8281 23.2577 52.9922 23.7056 52.2578C24.1535 51.5234 24.7811 50.9609 25.5884 50.5703C26.3957 50.1797 27.5598 49.8385 29.0806 49.5469C31.1327 49.1615 32.5546 48.8021 33.3462 48.4688V48.0312C33.3462 47.1875 33.1379 46.5859 32.7212 46.2266C32.3046 45.8672 31.5181 45.6875 30.3619 45.6875C29.5806 45.6875 28.9712 45.8411 28.5337 46.1484C28.0962 46.4557 27.7421 46.9948 27.4712 47.7656L23.4869 47.0469C23.9348 45.4427 24.7056 44.2552 25.7994 43.4844C26.8931 42.7135 28.5181 42.3281 30.6744 42.3281C32.6327 42.3281 34.091 42.5599 35.0494 43.0234C36.0077 43.487 36.6822 44.0755 37.0728 44.7891C37.4634 45.5026 37.6587 46.8125 37.6587 48.7188L37.6119 53.8438C37.6119 55.3021 37.6822 56.3776 37.8228 57.0703C37.9634 57.763 38.2265 58.5052 38.6119 59.2969H34.2681C34.1535 59.0052 34.0129 58.5729 33.8462 58C33.7733 57.7396 33.7212 57.5677 33.69 57.4844C32.94 58.2135 32.1379 58.7604 31.2837 59.125ZM29.8619 56.5781C29.1535 56.5781 28.5702 56.3542 28.1119 55.9062C27.6535 55.4583 27.4244 54.9271 27.4244 54.3125C27.4244 53.6875 27.7108 53.1719 28.2837 52.7656C28.6587 52.5156 29.4556 52.2604 30.6744 52C31.8931 51.7396 32.7837 51.5156 33.3462 51.3281V52.2031C33.3462 53.2552 33.289 53.9688 33.1744 54.3438C33.0077 54.9167 32.6587 55.401 32.1275 55.7969C31.4087 56.3177 30.6535 56.5781 29.8619 56.5781ZM48.6769 36.3906V59.2969H44.2862V36.3906H48.6769ZM59.8669 40.4531V36.3906H55.4762V40.4531H59.8669ZM59.8669 42.7031V59.2969H55.4762V42.7031H59.8669ZM72.6194 59.6719C73.5569 59.6719 74.4865 59.4401 75.4084 58.9766C76.3303 58.513 77.1298 57.8073 77.8069 56.8594V59.2969H81.885V36.3906H77.4944V44.6406C76.1402 43.099 74.536 42.3281 72.6819 42.3281C70.661 42.3281 68.9892 43.0599 67.6662 44.5234C66.3433 45.987 65.6819 48.125 65.6819 50.9375C65.6819 53.6875 66.3615 55.8307 67.7209 57.3672C69.0803 58.9036 70.7131 59.6719 72.6194 59.6719ZM70.9006 54.4844C71.6089 55.6302 72.5985 56.2031 73.8694 56.2031C74.8798 56.2031 75.7392 55.7734 76.4475 54.9141C77.1558 54.0547 77.51 52.7708 77.51 51.0625C77.51 49.1562 77.1662 47.7839 76.4787 46.9453C75.7912 46.1068 74.911 45.6875 73.8381 45.6875C72.7964 45.6875 71.924 46.1016 71.2209 46.9297C70.5178 47.7578 70.1662 48.9948 70.1662 50.6406C70.1662 52.4115 70.411 53.6927 70.9006 54.4844ZM92.8719 59.6719C93.8406 59.6719 94.7521 59.4896 95.6062 59.125C96.4604 58.7604 97.2625 58.2135 98.0125 57.4844C98.0437 57.5677 98.0958 57.7396 98.1687 58C98.3354 58.5729 98.476 59.0052 98.5906 59.2969H102.934C102.549 58.5052 102.286 57.763 102.145 57.0703C102.005 56.3776 101.934 55.3021 101.934 53.8438L101.981 48.7188C101.981 46.8125 101.786 45.5026 101.395 44.7891C101.005 44.0755 100.33 43.487 99.3719 43.0234C98.4135 42.5599 96.9552 42.3281 94.9969 42.3281C92.8406 42.3281 91.2156 42.7135 90.1219 43.4844C89.0281 44.2552 88.2573 45.4427 87.8094 47.0469L91.7937 47.7656C92.0646 46.9948 92.4187 46.4557 92.8562 46.1484C93.2937 45.8411 93.9031 45.6875 94.6844 45.6875C95.8406 45.6875 96.6271 45.8672 97.0437 46.2266C97.4604 46.5859 97.6687 47.1875 97.6687 48.0312V48.4688C96.8771 48.8021 95.4552 49.1615 93.4031 49.5469C91.8823 49.8385 90.7182 50.1797 89.9109 50.5703C89.1036 50.9609 88.476 51.5234 88.0281 52.2578C87.5802 52.9922 87.3562 53.8281 87.3562 54.7656C87.3562 56.1823 87.8484 57.3542 88.8328 58.2812C89.8172 59.2083 91.1635 59.6719 92.8719 59.6719ZM92.4344 55.9062C92.8927 56.3542 93.476 56.5781 94.1844 56.5781C94.976 56.5781 95.7312 56.3177 96.45 55.7969C96.9812 55.401 97.3302 54.9167 97.4969 54.3438C97.6114 53.9688 97.6687 53.2552 97.6687 52.2031V51.3281C97.1062 51.5156 96.2156 51.7396 94.9969 52C93.7781 52.2604 92.9812 52.5156 92.6062 52.7656C92.0333 53.1719 91.7469 53.6875 91.7469 54.3125C91.7469 54.9271 91.976 55.4583 92.4344 55.9062ZM113.109 59.6719C114.4 59.6719 115.557 59.4531 116.577 59.0156L116.202 55.6094C115.432 55.8906 114.843 56.0312 114.437 56.0312C114.145 56.0312 113.898 55.9583 113.695 55.8125C113.492 55.6667 113.361 55.4818 113.304 55.2578C113.247 55.0339 113.218 54.2448 113.218 52.8906V46.2031H116.218V42.7031H113.218V36.8438L108.812 39.4062V42.7031H106.796V46.2031H108.812V53.4375C108.812 54.9896 108.859 56.0208 108.952 56.5312C109.067 57.25 109.273 57.8203 109.57 58.2422C109.867 58.6641 110.333 59.0078 110.968 59.2734C111.604 59.5391 112.317 59.6719 113.109 59.6719ZM135.244 57.1953C133.624 58.8464 131.585 59.6719 129.127 59.6719C127.606 59.6719 126.155 59.3281 124.775 58.6406C123.395 57.9531 122.346 56.9453 121.627 55.6172C120.908 54.2891 120.549 52.6719 120.549 50.7656C120.549 49.3073 120.908 47.8958 121.627 46.5312C122.346 45.1667 123.364 44.125 124.682 43.4062C125.999 42.6875 127.471 42.3281 129.096 42.3281C131.606 42.3281 133.663 43.1432 135.267 44.7734C136.872 46.4036 137.674 48.4635 137.674 50.9531C137.674 53.4635 136.864 55.5443 135.244 57.1953ZM129.111 56.0938C127.965 56.0938 127.002 55.6562 126.221 54.7812C125.439 53.9062 125.049 52.6458 125.049 51C125.049 49.3542 125.439 48.0938 126.221 47.2188C127.002 46.3438 127.965 45.9062 129.111 45.9062C130.257 45.9062 131.218 46.3438 131.994 47.2188C132.77 48.0938 133.158 49.3438 133.158 50.9688C133.158 52.6354 132.77 53.9062 131.994 54.7812C131.218 55.6562 130.257 56.0938 129.111 56.0938ZM147.614 54.1719V59.2969H143.223V42.7031H147.301V45.0625C147.999 43.9479 148.627 43.2135 149.184 42.8594C149.741 42.5052 150.374 42.3281 151.082 42.3281C152.082 42.3281 153.046 42.6042 153.973 43.1562L152.614 46.9844C151.874 46.5052 151.187 46.2656 150.551 46.2656C149.937 46.2656 149.416 46.4349 148.989 46.7734C148.562 47.112 148.226 47.724 147.981 48.6094C147.736 49.4948 147.614 51.349 147.614 54.1719Z" fill="url(#paint0_linear_0_3195)"/>
<defs>
<linearGradient id="paint0_linear_0_3195" x1="-60.8302" y1="24.3937" x2="-32.162" y2="114.87" gradientUnits="userSpaceOnUse">
<stop stop-color="#0093ED"/>
<stop offset="1" stop-color="#00F3AB"/>
</linearGradient>
</defs>
</svg>
