<svg fill="none" height="24" viewBox="0 0 263 24" width="263" xmlns="http://www.w3.org/2000/svg" xmlns:xlink="http://www.w3.org/1999/xlink"><linearGradient id="a" gradientUnits="userSpaceOnUse" x1="-103.582" x2="-100.675" y1="9.68979" y2="49.0227"><stop offset="0" stop-color="#0093ed"/><stop offset="1" stop-color="#00f3ab"/></linearGradient><path clip-rule="evenodd" d="m14.4375 22.8672c-1.3333.5573-2.9948.8359-4.98438.8359-2.89583 0-5.11979-.6692-6.67187-2.0078-1.55208-1.3385-2.479167-3.2891-2.78125-5.8515l4.5-.4376c.27083 1.5105.82031 2.6198 1.64844 3.3282.82812.7083 1.94531 1.0625 3.35156 1.0625 1.4896 0 2.612-.3151 3.3672-.9453s1.1328-1.3672 1.1328-2.211c0-.5416-.1589-1.0026-.4766-1.3828s-.8724-.7109-1.664-.9922c-.5417-.1875-1.7761-.5208-3.70315-1-2.47917-.6146-4.21875-1.3698-5.21875-2.2656-1.40625-1.26042-2.109375-2.79688-2.109375-4.60938 0-1.16666.330725-2.25781.992185-3.27343.66146-1.01563 1.61459-1.78907 2.85938-2.320315 1.24479-.53125 2.74739-.796875 4.50781-.796875 2.875 0 5.0391.630208 6.4922 1.89062 1.4531 1.26042 2.2161 2.94271 2.2891 5.04688l-4.625.20312c-.198-1.17708-.6224-2.02343-1.2735-2.53906-.651-.51562-1.6276-.77344-2.92968-.77344-1.34374 0-2.39583.27605-3.15624.82813-.48959.35417-.73438.82813-.73438 1.42187 0 .54167.22917 1.00521.6875 1.39063.58333.48958 2 1 4.25 1.53125s3.9141 1.0807 4.9922 1.6484 1.9219 1.3438 2.5312 2.3282c.6094.9843.9141 2.2005.9141 3.6484 0 1.3125-.3646 2.5417-1.0938 3.6875-.7291 1.1458-1.7604 1.9974-3.0937 2.5547zm28.5144-2.3125c-2.0104 2.0885-4.6979 3.1328-8.0625 3.1328-3.4063 0-6.1146-1.0391-8.125-3.1172s-3.0157-4.9401-3.0157-8.5859c0-2.33336.349-4.29169 1.0469-5.87502.5209-1.16667 1.2318-2.21355 2.1328-3.14063.9011-.92708 1.8881-1.61458 2.961-2.0625 1.4271-.604167 3.0729-.90625 4.9375-.90625 3.375 0 6.0755 1.04688 8.1015 3.14062 2.0261 2.09376 3.0391 5.00521 3.0391 8.73438 0 3.6979-1.0052 6.5911-3.0156 8.6797zm-8.0782-.8203c-1.8437 0-3.3645-.6693-4.5625-2.0078-1.1979-1.3386-1.7968-3.3047-1.7968-5.8985 0-2.63539.5833-4.60675 1.75-5.91404 1.1666-1.30729 2.7031-1.96094 4.6093-1.96094 1.9063 0 3.4349.64584 4.586 1.9375 1.151 1.29167 1.7265 3.25 1.7265 5.87498 0 2.6563-.5911 4.6485-1.7734 5.9766s-2.6953 1.9922-4.5391 1.9922zm33.1238-.2969v3.8594h-16.125v-22.718775h4.625v18.859375zm15.6706 4.25c3.3646 0 6.0521-1.0443 8.0625-3.1328 2.0104-2.0886 3.0156-4.9818 3.0156-8.6797 0-3.72917-1.013-6.64062-3.039-8.73438-2.0261-2.09374-4.7266-3.14062-8.1016-3.14062-1.8646 0-3.5104.302083-4.9375.90625-1.0729.44792-2.0599 1.13542-2.9609 2.0625-.9011.92708-1.612 1.97396-2.1328 3.14063-.698 1.58333-1.0469 3.54166-1.0469 5.87502 0 3.6458 1.0052 6.5078 3.0156 8.5859s4.7188 3.1172 8.125 3.1172zm-4.5781-5.9609c1.1979 1.3385 2.7187 2.0078 4.5625 2.0078 1.8437 0 3.3568-.6641 4.5391-1.9922 1.1822-1.3281 1.7734-3.3203 1.7734-5.9766 0-2.62498-.5755-4.58331-1.7266-5.87498-1.151-1.29166-2.6797-1.9375-4.5859-1.9375-1.9063 0-3.4427.65365-4.6094 1.96094s-1.75 3.27865-1.75 5.91404c0 2.5938.599 4.5599 1.7969 5.8985zm43.279 5.5703 8.203-22.906275h-4.906l-5.61 16.953175-5.797-16.953175h-5.015l8.187 22.906275zm18.03-.1719c-.854.3646-1.766.5469-2.735.5469-1.708 0-3.054-.4636-4.039-1.3907-.984-.927-1.476-2.0989-1.476-3.5156 0-.9375.224-1.7734.672-2.5078s1.075-1.2969 1.882-1.6875c.808-.3906 1.972-.7318 3.493-1.0234 2.052-.3854 3.474-.7448 4.265-1.0781v-.4376c0-.8437-.208-1.4453-.625-1.8046-.416-.35941-1.203-.5391-2.359-.5391-.781 0-1.391.15365-1.828.4609-.438.3073-.792.8464-1.063 1.6172l-3.984-.7187c.448-1.60419 1.219-2.79169 2.312-3.56252 1.094-.77084 2.719-1.15626 4.875-1.15626 1.959 0 3.417.23178 4.375.69532.959.46354 1.633 1.05208 2.024 1.76562.39.71354.586 2.02344.586 3.92974l-.047 5.125c0 1.4583.07 2.5338.211 3.2265.14.6927.403 1.4349.789 2.2266h-4.344c-.114-.2917-.255-.724-.422-1.2969-.073-.2604-.125-.4323-.156-.5156-.75.7291-1.552 1.276-2.406 1.6406zm-1.422-2.5469c-.708 0-1.292-.2239-1.75-.6719-.458-.4479-.688-.9791-.688-1.5937 0-.625.287-1.1406.86-1.5469.375-.25 1.172-.5052 2.39-.7656 1.219-.2604 2.11-.4844 2.672-.6719v.875c0 1.0521-.057 1.7657-.172 2.1407-.166.5729-.515 1.0572-1.047 1.4531-.718.5208-1.473.7812-2.265.7812zm18.686-20.187475v22.906275h-4.391v-22.906275zm11.061 4.062495v-4.062495h-4.39v4.062495zm0 2.25v16.59378h-4.39v-16.59378zm12.624 16.96878c.938 0 1.867-.2318 2.789-.6953.922-.4636 1.722-1.1693 2.399-2.1172v2.4375h4.078v-22.906275h-4.391v8.249995c-1.354-1.54166-2.958-2.3125-4.812-2.3125-2.021 0-3.693.73178-5.016 2.19532s-1.984 3.60156-1.984 6.41406c0 2.75.679 4.8932 2.039 6.4297 1.359 1.5364 2.992 2.3047 4.898 2.3047zm-1.719-5.1875c.709 1.1458 1.698 1.7187 2.969 1.7187 1.011 0 1.87-.4297 2.578-1.289.709-.8594 1.063-2.1433 1.063-3.8516 0-1.9063-.344-3.2786-1.032-4.1172-.687-.8385-1.567-1.2578-2.64-1.2578-1.042 0-1.914.4141-2.617 1.2422s-1.055 2.0651-1.055 3.7109c0 1.7709.245 3.0521.734 3.8438zm21.843 5.1875c.969 0 1.88-.1823 2.734-.5469s1.656-.9115 2.406-1.6406c.032.0833.084.2552.157.5156.166.5729.307 1.0052.422 1.2969h4.343c-.385-.7917-.648-1.5339-.789-2.2266-.14-.6927-.211-1.7682-.211-3.2265l.047-5.125c0-1.9063-.195-3.2162-.586-3.92974-.39-.71354-1.065-1.30208-2.023-1.76562s-2.417-.69532-4.375-.69532c-2.156 0-3.781.38542-4.875 1.15626-1.094.77083-1.865 1.95833-2.313 3.56252l3.985.7187c.271-.7708.625-1.3099 1.062-1.6172.438-.30725 1.047-.4609 1.828-.4609 1.157 0 1.943.17969 2.36.5391.416.3593.625.9609.625 1.8046v.4376c-.792.3333-2.214.6927-4.266 1.0781-1.521.2916-2.685.6328-3.492 1.0234s-1.435.9531-1.883 1.6875-.672 1.5703-.672 2.5078c0 1.4167.492 2.5886 1.477 3.5156.984.9271 2.331 1.3907 4.039 1.3907zm-.438-3.7657c.459.448 1.042.6719 1.75.6719.792 0 1.547-.2604 2.266-.7812.531-.3959.88-.8802 1.047-1.4531.114-.375.172-1.0886.172-2.1407v-.875c-.563.1875-1.453.4115-2.672.6719s-2.016.5156-2.391.7656c-.573.4063-.859.9219-.859 1.5469 0 .6146.229 1.1458.687 1.5937zm20.546 3.7657c1.292 0 2.448-.2188 3.469-.6563l-.375-3.4062c-.771.2812-1.36.4218-1.766.4218-.292 0-.539-.0729-.742-.2187s-.333-.3307-.391-.5547c-.057-.2239-.086-1.013-.086-2.3672v-6.6875h3v-3.49998h-3v-5.85937l-4.406 2.5625v3.29687h-2.016v3.49998h2.016v7.2344c0 1.5521.047 2.5833.141 3.0937.114.7188.32 1.2891.617 1.711s.763.7656 1.398 1.0312c.636.2657 1.349.3985 2.141.3985zm22.007-2.4766c-1.62 1.6511-3.659 2.4766-6.118 2.4766-1.52 0-2.971-.3438-4.351-1.0313s-2.43-1.6953-3.149-3.0234c-.718-1.3281-1.078-2.9453-1.078-4.8516 0-1.4583.36-2.8698 1.078-4.2344.719-1.36453 1.737-2.4062 3.055-3.12495s2.789-1.07813 4.414-1.07813c2.511 0 4.568.81511 6.172 2.44532 1.604 1.63016 2.406 3.69006 2.406 6.17966 0 2.5104-.81 4.5912-2.429 6.2422zm-6.133-1.1015c-1.146 0-2.11-.4376-2.891-1.3126s-1.172-2.1354-1.172-3.7812.391-2.9062 1.172-3.7812 1.745-1.31255 2.891-1.31255 2.106.43755 2.883 1.31255c.776.875 1.164 2.125 1.164 3.75 0 1.6666-.388 2.9374-1.164 3.8124-.777.875-1.737 1.3126-2.883 1.3126zm18.373-1.9219v5.125h-4.39v-16.59378h4.078v2.35938c.698-1.11458 1.325-1.84896 1.883-2.20312.557-.35417 1.19-.53126 1.898-.53126 1 0 1.964.27605 2.891.82813l-1.36 3.82815c-.739-.4792-1.427-.7188-2.062-.7188-.615 0-1.135.1693-1.563.5078-.427.3386-.763.9506-1.007 1.836-.245.8854-.368 2.7396-.368 5.5625z" fill="url(#a)" fill-rule="evenodd"/></svg>