<svg width="29" height="28" viewBox="0 0 29 28" fill="none" xmlns="http://www.w3.org/2000/svg">
<path fill-rule="evenodd" clip-rule="evenodd" d="M11.2412 27.6418C11.1784 27.8542 10.9833 28 10.7617 28H6.10359C5.6241 28 5.2121 27.6597 5.12158 27.1888L4.36171 23.2362C5.79134 22.8599 6.77081 22.2143 6.77081 22.2143C6.77081 22.2143 9.63343 21.1409 13.2186 20.9556L11.2412 27.6418ZM15.8221 20.9902L17.7972 27.6423C17.8602 27.8545 18.0552 28 18.2765 28H22.9339C23.4139 28 23.8262 27.6589 23.9162 27.1874L24.6674 23.251C23.019 22.8772 21.7332 22.2143 21.7332 22.2143C21.7332 22.2143 19.1521 21.2465 15.8221 20.9902ZM25.6187 18.2658L28.991 0.593724C29.0499 0.285561 28.8136 0 28.4999 0H23.8832C23.6379 0 23.4288 0.177906 23.3896 0.420017L20.796 16.4247C21.3989 16.7957 21.7332 17.0714 21.7332 17.0714C21.7332 17.0714 23.6985 17.9721 25.6187 18.2658ZM19.1718 15.5742C17.8885 15.009 16.1937 14.5 14.252 14.5C12.5965 14.5 11.1204 14.87 9.92589 15.3294L12.5396 6.91233C12.6695 6.49398 13.0566 6.20888 13.4946 6.20888H15.5184C15.9561 6.20888 16.3429 6.49355 16.4731 6.91145L19.1718 15.5742ZM8.18423 16.1456L5.63584 0.420018C5.59661 0.177907 5.38755 0 5.14228 0H0.5C0.185999 0 -0.0502881 0.286039 0.00899082 0.594393L3.4087 18.2788C5.25297 17.9999 6.77081 17.0714 6.77081 17.0714C6.77081 17.0714 7.28354 16.6485 8.18423 16.1456Z" fill="#00F3AB"/>
</svg>
