<?xml version="1.0" encoding="UTF-8"?>
<svg width="167px" height="134px" viewBox="0 0 167 134" version="1.1" xmlns="http://www.w3.org/2000/svg" xmlns:xlink="http://www.w3.org/1999/xlink">
    <title>Final (2)</title>
    <g id="banner-最终" stroke="none" stroke-width="1" fill="none" fill-rule="evenodd">
        <g id="Final-(2)" transform="translate(0.000000, 0.937900)" fill="#66E2FF" fill-rule="nonzero">
            <path d="M163.8,132.7 L3.1,132.7 C1.4,132.7 0,131.3 0,129.6 L0,107.9 C0,106.2 1.4,104.8 3.1,104.8 L163.8,104.8 C165.5,104.8 166.9,106.2 166.9,107.9 L166.9,129.6 C166.9,131.3 165.5,132.7 163.8,132.7 Z" id="Path"></path>
            <path d="M166.9,84.2 C166.9,85.9 165.5,87.3 163.7,87.3 C149.4,86.9 141.4,84.1 134.4,81.5 C127.9,79.2 122.8,77.3 111.3,77.3 C99.8,77.3 94.7,79.1 88.2,81.5 C80.6,84.2 72,87.3 55.7,87.3 C39.4,87.3 30.8,84.2 23.2,81.5 C17.3,79.4 12.5,77.7 3.1,77.4 C1.5,77.3 0.1,76 0.1,74.4 L0.1,52.7 C0.1,51 1.5,49.6 3.3,49.6 C17.6,50 25.6,52.8 32.6,55.4 C39.1,57.7 44.2,59.6 55.7,59.6 C67.2,59.6 72.3,57.8 78.8,55.4 C86.4,52.7 95,49.6 111.3,49.6 C127.6,49.6 136.2,52.7 143.8,55.4 C149.7,57.5 154.5,59.2 163.9,59.5 C165.5,59.6 166.9,60.9 166.9,62.5 L166.9,84.2 Z" id="Path"></path>
            <path d="M166.9,34.7 C166.9,36.4 165.5,37.8 163.7,37.8 C149.4,37.4 141.4,34.6 134.4,32 C127.9,29.7 122.8,27.8 111.3,27.8 C99.8,27.8 94.7,29.6 88.2,32 C80.6,34.7 72,37.8 55.7,37.8 C39.4,37.8 30.8,34.7 23.2,31.9 C17.3,29.8 12.5,28.1 3.1,27.8 C1.5,27.7 0.1,26.4 0.1,24.8 L0.1,3.1 C0.1,1.4 1.5,0 3.3,0 C17.6,0.4 25.6,3.2 32.6,5.8 C39.1,8.1 44.2,10 55.7,10 C67.2,10 72.3,8.2 78.8,5.8 C86.4,3.1 95,0 111.3,0 C127.6,0 136.2,3.1 143.8,5.8 C149.7,7.9 154.5,9.6 163.9,9.9 C165.5,10 166.9,11.3 166.9,12.9 L166.9,34.7 Z" id="Path"></path>
        </g>
    </g>
</svg>