<?xml version="1.0" encoding="UTF-8"?>
<svg width="122px" height="122px" viewBox="0 0 122 122" version="1.1" xmlns="http://www.w3.org/2000/svg" xmlns:xlink="http://www.w3.org/1999/xlink">
    <title>Group 39</title>
    <g id="staker---staking-flow" stroke="none" stroke-width="1" fill="none" fill-rule="evenodd">
        <g id="5.反馈/1.Alert警告提示/暗色/大-警告-Copy-8" transform="translate(-242.000000, -221.000000)">
            <g id="Group-39" transform="translate(243.000000, 222.000000)">
                <path d="M9.09494702e-13,60 C9.09494702e-13,26.9191492 26.9187016,0 60,0 C93.0870409,0 120,26.9191492 120,60 C120,93.0865849 93.0870409,120 60,120 C26.9187016,120 9.09494702e-13,93.0865849 9.09494702e-13,60 Z" id="Path" fill="#FF52C4"></path>
                <path d="M60,0 C93.0870409,0 120,26.9191492 120,60 C120,93.0865849 93.0870409,120 60,120 C26.9187016,120 0,93.0865849 0,60 C0,26.9191492 26.9187016,0 60,0 Z M40.0780906,40.0780253 L39.9344452,40.2299745 C38.6423728,41.6757304 38.6902274,43.895534 40.0780088,45.283953 L54.793,59.9990111 L40.0786589,74.7154908 C38.6412796,76.1521997 38.6416913,78.4833741 40.0792408,79.9209186 L40.2310065,80.0644433 C41.6758866,81.3561793 43.8968047,81.3087301 45.2846067,79.9215755 L60,65.2050111 L74.7162527,79.9215004 C76.153636,81.3595441 78.4843037,81.3595441 79.9217755,79.9214118 L80.0653815,79.7696337 C81.3578286,78.3246756 81.3097719,76.1047076 79.9216937,74.7166343 L65.206,60.0010111 L79.9211186,45.285185 C81.3585728,43.8477359 81.3585728,41.5166245 79.9211186,40.0791755 L79.7693005,39.9356002 C78.3239442,38.643423 76.1029245,38.6912842 74.715589,40.0792573 L60,54.7950111 L45.2835316,40.0785936 C43.8462648,38.6406664 41.5156603,38.6404606 40.0780906,40.0780253 Z" id="Combined-Shape" stroke-opacity="0.5" stroke="#FF52C4" fill="#402E4C"></path>
            </g>
        </g>
    </g>
</svg>