<?xml version="1.0" encoding="UTF-8"?>
<svg width="158px" height="60px" viewBox="0 0 158 60" version="1.1" xmlns="http://www.w3.org/2000/svg" xmlns:xlink="http://www.w3.org/1999/xlink">
    <title>Trusted Validator</title>
    <defs>
        <linearGradient x1="10.4929716%" y1="42.8459754%" x2="92.2525491%" y2="57.1540246%" id="linearGradient-1">
            <stop stop-color="#0093ED" offset="0%"></stop>
            <stop stop-color="#00F3AB" offset="100%"></stop>
        </linearGradient>
    </defs>
    <g id="最终" stroke="none" stroke-width="1" fill="none" fill-rule="evenodd">
        <g id="process-intro-copy" transform="translate(-1817.000000, -532.000000)" fill="url(#linearGradient-1)" fill-rule="nonzero">
            <g id="Trusted-Validator" transform="translate(1817.513394, 532.093750)">
                <path d="M19.9319195,22.90625 L19.9319195,3.875 L13.1350445,3.875 L13.1350445,0 L31.3381695,0 L31.3381695,3.875 L24.5569195,3.875 L24.5569195,22.90625 L19.9319195,22.90625 Z M39.3716515,22.90625 L34.9810265,22.90625 L34.9810265,6.3125 L39.0591515,6.3125 L39.0591515,8.671875 C39.7570682,7.55729167 40.3846723,6.82291667 40.941964,6.46875 C41.4992557,6.11458333 42.1320682,5.9375 42.8404015,5.9375 C43.8404015,5.9375 44.8039432,6.21354167 45.7310265,6.765625 L44.3716515,10.59375 C43.6320682,10.1145833 42.9445682,9.875 42.3091515,9.875 C41.6945682,9.875 41.1737348,10.0442708 40.7466515,10.3828125 C40.3195682,10.7213542 39.9836307,11.3333333 39.738839,12.21875 C39.4940473,13.1041667 39.3716515,14.9583333 39.3716515,17.78125 L39.3716515,22.90625 Z M61.1863835,22.90625 L61.1863835,20.421875 C60.5822168,21.3072917 59.787946,22.0052083 58.803571,22.515625 C57.819196,23.0260417 56.7801335,23.28125 55.6863835,23.28125 C54.5718002,23.28125 53.5718002,23.0364583 52.6863835,22.546875 C51.8009668,22.0572917 51.1603418,21.3697917 50.7645085,20.484375 C50.3686752,19.5989583 50.1707585,18.375 50.1707585,16.8125 L50.1707585,6.3125 L54.5613835,6.3125 L54.5613835,13.9375 C54.5613835,16.2708333 54.6421127,17.7005208 54.803571,18.2265625 C54.9650293,18.7526042 55.2593002,19.1692708 55.6863835,19.4765625 C56.1134668,19.7838542 56.6551335,19.9375 57.3113835,19.9375 C58.0613835,19.9375 58.7332585,19.7317708 59.3270085,19.3203125 C59.9207585,18.9088542 60.3270085,18.3984375 60.5457585,17.7890625 C60.7645085,17.1796875 60.8738835,15.6875 60.8738835,13.3125 L60.8738835,6.3125 L65.2645085,6.3125 L65.2645085,22.90625 L61.1863835,22.90625 Z M70.9073655,18.171875 L75.3136155,17.5 C75.5011155,18.3541667 75.8813238,19.0026042 76.4542405,19.4453125 C77.0271572,19.8880208 77.8292405,20.109375 78.8604905,20.109375 C79.9959072,20.109375 80.8500738,19.9010417 81.4229905,19.484375 C81.8084072,19.1927083 82.0011155,18.8020833 82.0011155,18.3125 C82.0011155,17.9791667 81.8969488,17.703125 81.6886155,17.484375 C81.4698655,17.2760417 80.9802822,17.0833333 80.2198655,16.90625 C76.6781988,16.125 74.4334072,15.4114583 73.4854905,14.765625 C72.1729905,13.8697917 71.5167405,12.625 71.5167405,11.03125 C71.5167405,9.59375 72.0844488,8.38541667 73.2198655,7.40625 C74.3552822,6.42708333 76.1156988,5.9375 78.5011155,5.9375 C80.7719488,5.9375 82.4594488,6.30729167 83.5636155,7.046875 C84.6677822,7.78645833 85.4281988,8.88020833 85.8448655,10.328125 L81.7042405,11.09375 C81.5271572,10.4479167 81.1912197,9.953125 80.696428,9.609375 C80.2016363,9.265625 79.4959072,9.09375 78.5792405,9.09375 C77.4229905,9.09375 76.5948655,9.25520833 76.0948655,9.578125 C75.7615322,9.80729167 75.5948655,10.1041667 75.5948655,10.46875 C75.5948655,10.78125 75.7406988,11.046875 76.0323655,11.265625 C76.4281988,11.5572917 77.7953863,11.96875 80.133928,12.5 C82.4724697,13.03125 84.1052822,13.6822917 85.0323655,14.453125 C85.9490322,15.234375 86.4073655,16.3229167 86.4073655,17.71875 C86.4073655,19.2395833 85.7719488,20.546875 84.5011155,21.640625 C83.2302822,22.734375 81.3500738,23.28125 78.8604905,23.28125 C76.6000738,23.28125 74.8110113,22.8229167 73.493303,21.90625 C72.1755947,20.9895833 71.3136155,19.7447917 70.9073655,18.171875 Z M100.503347,6.3125 L100.503347,9.8125 L97.5033475,9.8125 L97.5033475,16.5 C97.5033475,17.8541667 97.5319933,18.6432292 97.589285,18.8671875 C97.6465767,19.0911458 97.776785,19.2760417 97.97991,19.421875 C98.183035,19.5677083 98.4304308,19.640625 98.7220975,19.640625 C99.1283475,19.640625 99.7168892,19.5 100.487722,19.21875 L100.862722,22.625 C99.8418892,23.0625 98.6856392,23.28125 97.3939725,23.28125 C96.6023058,23.28125 95.8887642,23.1484375 95.2533475,22.8828125 C94.6179308,22.6171875 94.151785,22.2734375 93.85491,21.8515625 C93.558035,21.4296875 93.3523058,20.859375 93.2377225,20.140625 C93.1439725,19.6302083 93.0970975,18.5989583 93.0970975,17.046875 L93.0970975,9.8125 L91.0814725,9.8125 L91.0814725,6.3125 L93.0970975,6.3125 L93.0970975,3.015625 L97.5033475,0.453125 L97.5033475,6.3125 L100.503347,6.3125 Z M115.802454,17.625 L120.177454,18.359375 C119.614954,19.9635417 118.726934,21.1848958 117.513392,22.0234375 C116.29985,22.8619792 114.781621,23.28125 112.958704,23.28125 C110.073288,23.28125 107.937871,22.3385417 106.552454,20.453125 C105.458704,18.9427083 104.911829,17.0364583 104.911829,14.734375 C104.911829,11.984375 105.630579,9.83072917 107.068079,8.2734375 C108.505579,6.71614583 110.323288,5.9375 112.521204,5.9375 C114.989954,5.9375 116.937871,6.75260417 118.364954,8.3828125 C119.792038,10.0130208 120.474329,12.5104167 120.411829,15.875 L109.411829,15.875 C109.443079,17.1770833 109.797246,18.1901042 110.474329,18.9140625 C111.151413,19.6380208 111.995163,20 113.005579,20 C113.693079,20 114.271204,19.8125 114.739954,19.4375 C115.208704,19.0625 115.562871,18.4583333 115.802454,17.625 Z M116.052454,13.1875 C116.021204,11.9166667 115.693079,10.9505208 115.068079,10.2890625 C114.443079,9.62760417 113.682663,9.296875 112.786829,9.296875 C111.828496,9.296875 111.036829,9.64583333 110.411829,10.34375 C109.786829,11.0416667 109.479538,11.9895833 109.489954,13.1875 L116.052454,13.1875 Z M141.851561,22.90625 L137.773436,22.90625 L137.773436,20.46875 C137.096353,21.4166667 136.296874,22.1223958 135.374999,22.5859375 C134.453124,23.0494792 133.523436,23.28125 132.585936,23.28125 C130.679686,23.28125 129.046874,22.5130208 127.687499,20.9765625 C126.328124,19.4401042 125.648436,17.296875 125.648436,14.546875 C125.648436,11.734375 126.309895,9.59635417 127.632811,8.1328125 C128.955728,6.66927083 130.627603,5.9375 132.648436,5.9375 C134.502603,5.9375 136.10677,6.70833333 137.460936,8.25 L137.460936,0 L141.851561,0 L141.851561,22.90625 Z M130.132811,14.25 C130.132811,16.0208333 130.377603,17.3020833 130.867186,18.09375 C131.57552,19.2395833 132.565103,19.8125 133.835936,19.8125 C134.846353,19.8125 135.705728,19.3828125 136.414061,18.5234375 C137.122395,17.6640625 137.476561,16.3802083 137.476561,14.671875 C137.476561,12.765625 137.132811,11.3932292 136.445311,10.5546875 C135.757811,9.71614583 134.877603,9.296875 133.804686,9.296875 C132.76302,9.296875 131.890624,9.7109375 131.187499,10.5390625 C130.484374,11.3671875 130.132811,12.6041667 130.132811,14.25 Z M8.1875,58.90625 L0,36 L5.015625,36 L10.8125,52.953125 L16.421875,36 L21.328125,36 L13.125,58.90625 L8.1875,58.90625 Z M27.814732,47.375 L23.830357,46.65625 C24.2782737,45.0520833 25.049107,43.8645833 26.142857,43.09375 C27.236607,42.3229167 28.861607,41.9375 31.017857,41.9375 C32.9761903,41.9375 34.4345237,42.1692708 35.392857,42.6328125 C36.3511903,43.0963542 37.0256695,43.6848958 37.4162945,44.3984375 C37.8069195,45.1119792 38.002232,46.421875 38.002232,48.328125 L37.955357,53.453125 C37.955357,54.9114583 38.0256695,55.9869792 38.1662945,56.6796875 C38.3069195,57.3723958 38.5699403,58.1145833 38.955357,58.90625 L34.611607,58.90625 C34.4970237,58.6145833 34.3563987,58.1822917 34.189732,57.609375 C34.1168153,57.3489583 34.064732,57.1770833 34.033482,57.09375 C33.283482,57.8229167 32.4813987,58.3697917 31.627232,58.734375 C30.7730653,59.0989583 29.861607,59.28125 28.892857,59.28125 C27.1845237,59.28125 25.8381695,58.8177083 24.8537945,57.890625 C23.8694195,56.9635417 23.377232,55.7916667 23.377232,54.375 C23.377232,53.4375 23.6011903,52.6015625 24.049107,51.8671875 C24.4970237,51.1328125 25.1246278,50.5703125 25.9319195,50.1796875 C26.7392112,49.7890625 27.9032737,49.4479167 29.424107,49.15625 C31.4761903,48.7708333 32.8980653,48.4114583 33.689732,48.078125 L33.689732,47.640625 C33.689732,46.796875 33.4813987,46.1953125 33.064732,45.8359375 C32.6480653,45.4765625 31.861607,45.296875 30.705357,45.296875 C29.924107,45.296875 29.314732,45.4505208 28.877232,45.7578125 C28.439732,46.0651042 28.0855653,46.6041667 27.814732,47.375 Z M33.689732,50.9375 C33.127232,51.125 32.236607,51.3489583 31.017857,51.609375 C29.799107,51.8697917 29.002232,52.125 28.627232,52.375 C28.0543153,52.78125 27.767857,53.296875 27.767857,53.921875 C27.767857,54.5364583 27.9970237,55.0677083 28.455357,55.515625 C28.9136903,55.9635417 29.4970237,56.1875 30.205357,56.1875 C30.9970237,56.1875 31.752232,55.9270833 32.470982,55.40625 C33.002232,55.0104167 33.3511903,54.5260417 33.517857,53.953125 C33.6324403,53.578125 33.689732,52.8645833 33.689732,51.8125 L33.689732,50.9375 Z M44.973214,58.90625 L44.973214,36 L49.363839,36 L49.363839,58.90625 L44.973214,58.90625 Z M56.506696,40.0625 L56.506696,36 L60.897321,36 L60.897321,40.0625 L56.506696,40.0625 Z M56.506696,58.90625 L56.506696,42.3125 L60.897321,42.3125 L60.897321,58.90625 L56.506696,58.90625 Z M83.258928,58.90625 L79.180803,58.90625 L79.180803,56.46875 C78.5037197,57.4166667 77.7042405,58.1223958 76.7823655,58.5859375 C75.8604905,59.0494792 74.930803,59.28125 73.993303,59.28125 C72.087053,59.28125 70.4542405,58.5130208 69.0948655,56.9765625 C67.7354905,55.4401042 67.055803,53.296875 67.055803,50.546875 C67.055803,47.734375 67.7172613,45.5963542 69.040178,44.1328125 C70.3630947,42.6692708 72.0349697,41.9375 74.055803,41.9375 C75.9099697,41.9375 77.5141363,42.7083333 78.868303,44.25 L78.868303,36 L83.258928,36 L83.258928,58.90625 Z M71.540178,50.25 C71.540178,52.0208333 71.7849697,53.3020833 72.274553,54.09375 C72.9828863,55.2395833 73.9724697,55.8125 75.243303,55.8125 C76.2537197,55.8125 77.1130947,55.3828125 77.821428,54.5234375 C78.5297613,53.6640625 78.883928,52.3802083 78.883928,50.671875 C78.883928,48.765625 78.540178,47.3932292 77.852678,46.5546875 C77.165178,45.7161458 76.2849697,45.296875 75.212053,45.296875 C74.1703863,45.296875 73.2979905,45.7109375 72.5948655,46.5390625 C71.8917405,47.3671875 71.540178,48.6041667 71.540178,50.25 Z M93.51116,47.375 L89.526785,46.65625 C89.9747017,45.0520833 90.745535,43.8645833 91.839285,43.09375 C92.933035,42.3229167 94.558035,41.9375 96.714285,41.9375 C98.6726183,41.9375 100.130952,42.1692708 101.089285,42.6328125 C102.047618,43.0963542 102.722097,43.6848958 103.112722,44.3984375 C103.503347,45.1119792 103.69866,46.421875 103.69866,48.328125 L103.651785,53.453125 C103.651785,54.9114583 103.722097,55.9869792 103.862722,56.6796875 C104.003347,57.3723958 104.266368,58.1145833 104.651785,58.90625 L100.308035,58.90625 C100.193452,58.6145833 100.052827,58.1822917 99.88616,57.609375 C99.8132433,57.3489583 99.76116,57.1770833 99.72991,57.09375 C98.97991,57.8229167 98.1778267,58.3697917 97.32366,58.734375 C96.4694933,59.0989583 95.558035,59.28125 94.589285,59.28125 C92.8809517,59.28125 91.5345975,58.8177083 90.5502225,57.890625 C89.5658475,56.9635417 89.07366,55.7916667 89.07366,54.375 C89.07366,53.4375 89.2976183,52.6015625 89.745535,51.8671875 C90.1934517,51.1328125 90.8210558,50.5703125 91.6283475,50.1796875 C92.4356392,49.7890625 93.5997017,49.4479167 95.120535,49.15625 C97.1726183,48.7708333 98.5944933,48.4114583 99.38616,48.078125 L99.38616,47.640625 C99.38616,46.796875 99.1778267,46.1953125 98.76116,45.8359375 C98.3444933,45.4765625 97.558035,45.296875 96.401785,45.296875 C95.620535,45.296875 95.01116,45.4505208 94.57366,45.7578125 C94.13616,46.0651042 93.7819933,46.6041667 93.51116,47.375 Z M99.38616,50.9375 C98.82366,51.125 97.933035,51.3489583 96.714285,51.609375 C95.495535,51.8697917 94.69866,52.125 94.32366,52.375 C93.7507433,52.78125 93.464285,53.296875 93.464285,53.921875 C93.464285,54.5364583 93.6934517,55.0677083 94.151785,55.515625 C94.6101183,55.9635417 95.1934517,56.1875 95.901785,56.1875 C96.6934517,56.1875 97.44866,55.9270833 98.16741,55.40625 C98.69866,55.0104167 99.0476183,54.5260417 99.214285,53.953125 C99.3288683,53.578125 99.38616,52.8645833 99.38616,51.8125 L99.38616,50.9375 Z M118.279017,42.3125 L118.279017,45.8125 L115.279017,45.8125 L115.279017,52.5 C115.279017,53.8541667 115.307663,54.6432292 115.364954,54.8671875 C115.422246,55.0911458 115.552454,55.2760417 115.755579,55.421875 C115.958704,55.5677083 116.2061,55.640625 116.497767,55.640625 C116.904017,55.640625 117.492559,55.5 118.263392,55.21875 L118.638392,58.625 C117.617559,59.0625 116.461309,59.28125 115.169642,59.28125 C114.377975,59.28125 113.664434,59.1484375 113.029017,58.8828125 C112.3936,58.6171875 111.927454,58.2734375 111.630579,57.8515625 C111.333704,57.4296875 111.127975,56.859375 111.013392,56.140625 C110.919642,55.6302083 110.872767,54.5989583 110.872767,53.046875 L110.872767,45.8125 L108.857142,45.8125 L108.857142,42.3125 L110.872767,42.3125 L110.872767,39.015625 L115.279017,36.453125 L115.279017,42.3125 L118.279017,42.3125 Z M122.953124,50.375 C122.953124,48.9166667 123.312499,47.5052083 124.031249,46.140625 C124.749999,44.7760417 125.768228,43.734375 127.085936,43.015625 C128.403645,42.296875 129.874999,41.9375 131.499999,41.9375 C134.010416,41.9375 136.067707,42.7526042 137.671874,44.3828125 C139.276041,46.0130208 140.078124,48.0729167 140.078124,50.5625 C140.078124,53.0729167 139.268228,55.1536458 137.648436,56.8046875 C136.028645,58.4557292 133.989582,59.28125 131.531249,59.28125 C130.010416,59.28125 128.559895,58.9375 127.179686,58.25 C125.799478,57.5625 124.749999,56.5546875 124.031249,55.2265625 C123.312499,53.8984375 122.953124,52.28125 122.953124,50.375 Z M127.453124,50.609375 C127.453124,52.2552083 127.843749,53.515625 128.624999,54.390625 C129.406249,55.265625 130.369791,55.703125 131.515624,55.703125 C132.661457,55.703125 133.622395,55.265625 134.398436,54.390625 C135.174478,53.515625 135.562499,52.2447917 135.562499,50.578125 C135.562499,48.953125 135.174478,47.703125 134.398436,46.828125 C133.622395,45.953125 132.661457,45.515625 131.515624,45.515625 C130.369791,45.515625 129.406249,45.953125 128.624999,46.828125 C127.843749,47.703125 127.453124,48.9635417 127.453124,50.609375 Z M150.361606,58.90625 L145.970981,58.90625 L145.970981,42.3125 L150.049106,42.3125 L150.049106,44.671875 C150.747023,43.5572917 151.374627,42.8229167 151.931918,42.46875 C152.48921,42.1145833 153.122023,41.9375 153.830356,41.9375 C154.830356,41.9375 155.793898,42.2135417 156.720981,42.765625 L155.361606,46.59375 C154.622023,46.1145833 153.934523,45.875 153.299106,45.875 C152.684523,45.875 152.163689,46.0442708 151.736606,46.3828125 C151.309523,46.7213542 150.973585,47.3333333 150.728793,48.21875 C150.484002,49.1041667 150.361606,50.9583333 150.361606,53.78125 L150.361606,58.90625 Z" id="Combined-Shape"></path>
            </g>
        </g>
    </g>
</svg>