<svg fill="none" height="27" viewBox="0 0 254 27" width="254" xmlns="http://www.w3.org/2000/svg" xmlns:xlink="http://www.w3.org/1999/xlink"><linearGradient id="a" gradientUnits="userSpaceOnUse" x1="-100.209" x2="-96.3931" y1="10.9298" y2="55.2095"><stop offset="0" stop-color="#0093ed"/><stop offset="1" stop-color="#00f3ab"/></linearGradient><path clip-rule="evenodd" d="m160.045 4.62305v-4.62305h-5.08v4.62305zm-146.8087 21.44535v-21.32231h7.752v-4.587887h-20.9883v4.587887h7.78711v21.32231zm13.8727 0v-9.1582c0-1.5352.1933-2.6719.5801-3.4102.6914-1.3125 2.0449-1.9688 4.0605-1.9688.1524 0 .3516.0059.5977.0176s.5273.0352.8437.0703v-5.13277c-.2226-.01172-.3662-.02051-.4306-.02637-.0645-.00586-.1436-.00879-.2374-.00879-1.5 0-2.7187.39258-3.6562 1.17774-.5742.46875-1.2481 1.34179-2.0215 2.61909v-3.3398h-4.7812v19.1602zm18.3463.0351c-.7324.2578-1.5908.3867-2.5752.3867-2.836 0-4.7461-1.0195-5.7305-3.0586-.5508-1.125-.8262-2.7832-.8262-4.9746v-11.5488h5.1328v11.5488c0 1.0899.129 1.9102.3868 2.461.457.9726 1.3535 1.459 2.6894 1.459 1.711 0 2.8828-.6915 3.5156-2.0743.3282-.75.4922-1.7402.4922-2.9707v-10.4238h5.0801v19.1602h-4.8691v-2.7071c-.0469.0586-.1641.2344-.3516.5274-.1875.2929-.4101.5508-.668.7734-.7851.7031-1.5439 1.1836-2.2763 1.4414zm20.983.6153c2.9531 0 5.1357-.6006 6.5478-1.8018s2.1182-2.751 2.1182-4.6494c0-1.4414-.4922-2.6426-1.4766-3.6035-.9961-.9493-2.4902-1.6582-4.4824-2.127-2.9883-.6562-4.7285-1.1191-5.2207-1.3887-.4922-.2578-.7383-.6738-.7383-1.248 0-.457.2315-.8555.6944-1.1953.4629-.3399 1.2392-.5098 2.3291-.5098 1.3242 0 2.2617.3399 2.8125 1.0195.2929.375.4746.8848.5449 1.5293h5.0098c-.2227-2.3437-1.087-3.99312-2.5928-4.9482-1.5059-.95508-3.4541-1.43262-5.8447-1.43262-2.5196 0-4.4737.63574-5.8624 1.90723-1.3886 1.27148-2.083 2.79199-2.083 4.56149 0 1.5.4454 2.6485 1.336 3.4453.8906.8086 2.4199 1.4825 4.5879 2.0215 3.0117.7149 4.7519 1.2188 5.2207 1.5117.4687.293.7031.7207.7031 1.2833 0 .5859-.29 1.0253-.8701 1.3183s-1.3623.4395-2.3467.4395c-1.6758 0-2.8242-.334-3.4453-1.002-.3516-.375-.5801-1.0078-.6856-1.8984h-5.08c0 1.9687.7177 3.5888 2.1533 4.8603 1.4355 1.2715 3.6592 1.9073 6.6709 1.9073zm19.1109-.3868c-2.3672.0821-3.9844-.3281-4.8515-1.2304-.5625-.5743-.8438-1.459-.8438-2.6543v-11.795h-2.6719v-3.56832h2.6719v-5.34375h4.957v5.34375h3.1114v3.56832h-3.1114v10.125c0 .7852.0996 1.2745.2989 1.4678.1992.1934.8086.2901 1.8281.2901.1523 0 .3135-.003.4834-.0088.1699-.0059.3369-.0147.501-.0264v3.7441zm28.6238-.2636 8.842-25.910197h-5.625l-5.677 19.669897-5.625-19.669897h-5.784l8.754 25.910197zm18.373-.334c-1.078.6211-2.297.9316-3.656.9316-1.735 0-3.167-.4951-4.298-1.4853-1.131-.9903-1.696-2.3936-1.696-4.21 0-2.3555.908-4.0605 2.724-5.1152.996-.5743 2.461-.9844 4.395-1.2305l1.705-.2109c.926-.1172 1.588-.2637 1.986-.4395.715-.3047 1.073-.7793 1.073-1.4238 0-.7852-.273-1.3272-.818-1.626s-1.345-.4482-2.399-.4482c-1.184 0-2.022.2929-2.514.8789-.352.4336-.586 1.0195-.703 1.7578h-4.834c.105-1.6758.574-3.0528 1.406-4.13088 1.324-1.6875 3.598-2.53125 6.821-2.53125 2.097 0 3.96.41602 5.589 1.24805s2.444 2.40238 2.444 4.71098v8.789c0 .6094.011 1.3477.035 2.2149.035.6562.135 1.1015.299 1.3359s.41.4277.738.5801v.7383h-5.449c-.153-.3868-.258-.75-.317-1.0899-.058-.3398-.105-.7265-.14-1.1601-.692.75-1.489 1.3886-2.391 1.916zm-2.18-2.7071c-.679 0-1.256-.1904-1.731-.5712-.475-.3809-.712-.9991-.712-1.8545 0-.961.387-1.67 1.16-2.127.457-.2695 1.213-.498 2.268-.6855l1.125-.211c.562-.1054 1.005-.2197 1.327-.3427.322-.1231.642-.2842.958-.4834v1.8632c-.035 1.6758-.507 2.8301-1.415 3.4629s-1.901.9492-2.98.9492zm14.295-22.869097h5.01v25.910197h-5.01zm15.384 6.749997v19.1602h-5.08v-19.1602zm11.904 19.7578c1.36 0 2.496-.2578 3.41-.7734s1.729-1.3418 2.444-2.4785v2.6543h4.869v-25.875041h-5.08v9.140621c-.563-.90234-1.295-1.60839-2.197-2.11816-.903-.50977-1.934-.76465-3.094-.76465-2.52 0-4.532.9375-6.038 2.8125-1.506 1.87503-2.259 4.44723-2.259 7.71683 0 2.8359.765 5.1591 2.294 6.9697 1.529 1.8105 3.413 2.7158 5.651 2.7158zm-1.731-5.8096c.697 1.0606 1.755 1.5909 3.173 1.5909s2.496-.5274 3.234-1.5821 1.107-2.4199 1.107-4.0957c0-2.3437-.591-4.0195-1.775-5.0273-.727-.6094-1.57-.9141-2.531-.9141-1.465 0-2.54.5537-3.226 1.6612-.685 1.1074-1.028 2.4814-1.028 4.122 0 1.7696.349 3.1846 1.046 4.2451zm22.037 5.8096c1.36 0 2.579-.3105 3.657-.9316.902-.5274 1.699-1.166 2.39-1.916.035.4336.082.8203.141 1.1601.059.3399.164.7031.316 1.0899h5.45v-.7383c-.329-.1524-.575-.3457-.739-.5801s-.263-.6797-.299-1.3359c-.023-.8672-.035-1.6055-.035-2.2149v-8.789c0-2.3086-.814-3.87895-2.443-4.71098s-3.492-1.24805-5.59-1.24805c-3.223 0-5.496.84375-6.82 2.53125-.832 1.07808-1.301 2.45508-1.406 4.13088h4.834c.117-.7383.351-1.3242.703-1.7578.492-.586 1.33-.8789 2.513-.8789 1.055 0 1.855.1494 2.4.4482s.817.8408.817 1.626c0 .6445-.357 1.1191-1.072 1.4238-.399.1758-1.061.3223-1.986.4395l-1.706.2109c-1.933.2461-3.398.6562-4.394 1.2305-1.816 1.0547-2.725 2.7597-2.725 5.1152 0 1.8164.566 3.2197 1.697 4.21 1.13.9902 2.563 1.4853 4.297 1.4853zm-.254-4.2099c.474.3808 1.051.5712 1.731.5712 1.078 0 2.071-.3164 2.98-.9492.908-.6328 1.379-1.7871 1.415-3.4629v-1.8632c-.317.1992-.636.3603-.958.4834-.323.123-.765.2373-1.328.3427l-1.125.211c-1.054.1875-1.81.416-2.267.6855-.774.457-1.16 1.166-1.16 2.127 0 .8554.237 1.4736.712 1.8545zm17.467 2.6455c.867.9023 2.484 1.3125 4.852 1.2304l2.373-.0879v-3.7441c-.164.0117-.331.0205-.501.0264-.17.0058-.331.0088-.484.0088-1.019 0-1.629-.0967-1.828-.2901-.199-.1933-.299-.6826-.299-1.4678v-10.125h3.112v-3.56832h-3.112v-5.34375h-4.957v5.34375h-2.672v3.56832h2.672v11.795c0 1.1953.281 2.08.844 2.6543zm26.757-1.3623c-1.617 1.998-4.072 2.997-7.365 2.997s-5.748-.999-7.365-2.997c-1.617-1.9981-2.426-4.4034-2.426-7.2159 0-2.7656.809-5.1621 2.426-7.18942 1.617-2.02734 4.072-3.04101 7.365-3.04101s5.748 1.01367 7.365 3.04101c1.618 2.02732 2.426 4.42382 2.426 7.18942 0 2.8125-.808 5.2178-2.426 7.2159zm-7.382-1.2041c-1.465 0-2.593-.5215-3.384-1.5645s-1.187-2.5254-1.187-4.4473c0-1.9218.396-3.4013 1.187-4.4384s1.919-1.5557 3.384-1.5557c1.464 0 2.589.5186 3.375 1.5557.785 1.0371 1.177 2.5166 1.177 4.4384 0 1.9219-.392 3.4043-1.177 4.4473-.786 1.043-1.911 1.5645-3.375 1.5645zm18.724-5.625v9.1582h-5.045v-19.1602h4.781v3.3398c.774-1.2773 1.447-2.15034 2.022-2.61909.937-.78516 2.156-1.17774 3.656-1.17774.094 0 .173.00293.237.00879.065.00586.208.01465.431.02637v5.13277c-.317-.0351-.598-.0586-.844-.0703s-.445-.0176-.598-.0176c-2.015 0-3.369.6563-4.06 1.9688-.387.7383-.58 1.875-.58 3.4102z" fill="url(#a)" fill-rule="evenodd"/></svg>