<svg width="154" height="60" viewBox="0 0 154 60" fill="none" xmlns="http://www.w3.org/2000/svg">
<path fill-rule="evenodd" clip-rule="evenodd" d="M45.1847 22.9062V3.875H51.9659V0H33.7628V3.875H40.5597V22.9062H45.1847ZM59.6559 22.9062L59.6566 17.4185C59.6668 14.7989 59.789 13.0657 60.0231 12.2188C60.2679 11.3333 60.6038 10.7214 61.0309 10.3828C61.458 10.0443 61.9788 9.875 62.5934 9.875C63.2288 9.875 63.9163 10.1146 64.6559 10.5938L66.0153 6.76562C65.0882 6.21354 64.1247 5.9375 63.1247 5.9375C62.4163 5.9375 61.7835 6.11458 61.2262 6.46875C60.6689 6.82292 60.0413 7.55729 59.3434 8.67188V6.3125H55.2653V22.9062H59.6559ZM78.7444 22.5156C77.76 23.026 76.7209 23.2812 75.6272 23.2812C74.5126 23.2812 73.5126 23.0365 72.6272 22.5469C71.7418 22.0573 71.1011 21.3698 70.7053 20.4844C70.3095 19.599 70.1115 18.375 70.1115 16.8125V6.3125H74.5022V13.9375C74.5022 16.2708 74.5829 17.7005 74.7444 18.2266C74.9058 18.7526 75.2001 19.1693 75.6272 19.4766C76.0543 19.7839 76.5959 19.9375 77.2522 19.9375C78.0022 19.9375 78.674 19.7318 79.2678 19.3203C79.8615 18.9089 80.2678 18.3984 80.4865 17.7891C80.6949 17.2087 80.804 15.8276 80.8139 13.6458L80.8147 6.3125H85.2053V22.9062H81.1272V20.4219C80.523 21.3073 79.7287 22.0052 78.7444 22.5156ZM98.4578 23.2812C100.947 23.2812 102.828 22.7344 104.098 21.6406C105.369 20.5469 106.005 19.2396 106.005 17.7188C106.005 16.3229 105.546 15.2344 104.63 14.4531C103.703 13.6823 102.07 13.0312 99.7312 12.5C97.3927 11.9688 96.0255 11.5573 95.6297 11.2656C95.338 11.0469 95.1922 10.7812 95.1922 10.4688C95.1922 10.1042 95.3588 9.80729 95.6922 9.57812C96.1922 9.25521 97.0203 9.09375 98.1765 9.09375C99.0932 9.09375 99.7989 9.26562 100.294 9.60938C100.789 9.95312 101.124 10.4479 101.302 11.0938L105.442 10.3281C105.026 8.88021 104.265 7.78646 103.161 7.04688C102.057 6.30729 100.369 5.9375 98.0984 5.9375C95.713 5.9375 93.9526 6.42708 92.8172 7.40625C91.6818 8.38542 91.114 9.59375 91.114 11.0312C91.114 12.625 91.7703 13.8698 93.0828 14.7656C94.0307 15.4115 96.2755 16.125 99.8172 16.9062C100.578 17.0833 101.067 17.276 101.286 17.4844C101.494 17.7031 101.598 17.9792 101.598 18.3125C101.598 18.8021 101.406 19.1927 101.02 19.4844C100.447 19.901 99.5932 20.1094 98.4578 20.1094C97.4265 20.1094 96.6245 19.888 96.0515 19.4453C95.4786 19.0026 95.0984 18.3542 94.9109 17.5L90.5047 18.1719C90.9109 19.7448 91.7729 20.9896 93.0906 21.9062C94.4083 22.8229 96.1974 23.2812 98.4578 23.2812ZM120.117 22.625C119.096 23.0625 117.939 23.2812 116.648 23.2812C115.856 23.2812 115.143 23.1484 114.507 22.8828C113.872 22.6172 113.406 22.2734 113.109 21.8516C112.812 21.4297 112.606 20.8594 112.492 20.1406C112.398 19.6302 112.351 18.599 112.351 17.0469V9.8125H110.335V6.3125H112.351V3.01562L116.757 0.453125V6.3125H119.757V9.8125H116.757V16.5C116.757 17.8542 116.786 18.6432 116.843 18.8672C116.9 19.0911 117.031 19.276 117.234 19.4219C117.437 19.5677 117.684 19.6406 117.976 19.6406C118.382 19.6406 118.971 19.5 119.742 19.2188L120.117 22.625ZM13.125 58.9062L21.3281 36H16.4219L10.8125 52.9531L5.01562 36H0L8.1875 58.9062H13.125ZM31.2837 58.7344C30.4296 59.099 29.5181 59.2812 28.5494 59.2812C26.841 59.2812 25.4947 58.8177 24.5103 57.8906C23.5259 56.9635 23.0337 55.7917 23.0337 54.375C23.0337 53.4375 23.2577 52.6016 23.7056 51.8672C24.1535 51.1328 24.7811 50.5703 25.5884 50.1797C26.3957 49.7891 27.5598 49.4479 29.0806 49.1562C31.1327 48.7708 32.5546 48.4115 33.3462 48.0781V47.6406C33.3462 46.7969 33.1379 46.1953 32.7212 45.8359C32.3046 45.4766 31.5181 45.2969 30.3619 45.2969C29.5806 45.2969 28.9712 45.4505 28.5337 45.7578C28.0962 46.0651 27.7421 46.6042 27.4712 47.375L23.4869 46.6562C23.9348 45.0521 24.7056 43.8646 25.7994 43.0938C26.8931 42.3229 28.5181 41.9375 30.6744 41.9375C32.6327 41.9375 34.091 42.1693 35.0494 42.6328C36.0077 43.0964 36.6822 43.6849 37.0728 44.3984C37.4634 45.112 37.6587 46.4219 37.6587 48.3281L37.6119 53.4531C37.6119 54.9115 37.6822 55.987 37.8228 56.6797C37.9634 57.3724 38.2265 58.1146 38.6119 58.9062H34.2681C34.1535 58.6146 34.0129 58.1823 33.8462 57.6094C33.7733 57.349 33.7212 57.1771 33.69 57.0938C32.94 57.8229 32.1379 58.3698 31.2837 58.7344ZM29.8619 56.1875C29.1535 56.1875 28.5702 55.9635 28.1119 55.5156C27.6535 55.0677 27.4244 54.5365 27.4244 53.9219C27.4244 53.2969 27.7108 52.7812 28.2837 52.375C28.6587 52.125 29.4556 51.8698 30.6744 51.6094C31.8931 51.349 32.7837 51.125 33.3462 50.9375V51.8125C33.3462 52.8646 33.289 53.5781 33.1744 53.9531C33.0077 54.526 32.6587 55.0104 32.1275 55.4062C31.4087 55.9271 30.6535 56.1875 29.8619 56.1875ZM48.6769 36V58.9062H44.2862V36H48.6769ZM59.8669 40.0625V36H55.4762V40.0625H59.8669ZM59.8669 42.3125V58.9062H55.4762V42.3125H59.8669ZM72.6194 59.2812C73.5569 59.2812 74.4865 59.0495 75.4084 58.5859C76.3303 58.1224 77.1298 57.4167 77.8069 56.4688V58.9062H81.885V36H77.4944V44.25C76.1402 42.7083 74.536 41.9375 72.6819 41.9375C70.661 41.9375 68.9892 42.6693 67.6662 44.1328C66.3433 45.5964 65.6819 47.7344 65.6819 50.5469C65.6819 53.2969 66.3615 55.4401 67.7209 56.9766C69.0803 58.513 70.7131 59.2812 72.6194 59.2812ZM70.9006 54.0938C71.6089 55.2396 72.5985 55.8125 73.8694 55.8125C74.8798 55.8125 75.7392 55.3828 76.4475 54.5234C77.1558 53.6641 77.51 52.3802 77.51 50.6719C77.51 48.7656 77.1662 47.3932 76.4787 46.5547C75.7912 45.7161 74.911 45.2969 73.8381 45.2969C72.7964 45.2969 71.924 45.7109 71.2209 46.5391C70.5178 47.3672 70.1662 48.6042 70.1662 50.25C70.1662 52.0208 70.411 53.3021 70.9006 54.0938ZM92.8719 59.2812C93.8406 59.2812 94.7521 59.099 95.6062 58.7344C96.4604 58.3698 97.2625 57.8229 98.0125 57.0938C98.0437 57.1771 98.0958 57.349 98.1687 57.6094C98.3354 58.1823 98.476 58.6146 98.5906 58.9062H102.934C102.549 58.1146 102.286 57.3724 102.145 56.6797C102.005 55.987 101.934 54.9115 101.934 53.4531L101.981 48.3281C101.981 46.4219 101.786 45.112 101.395 44.3984C101.005 43.6849 100.33 43.0964 99.3719 42.6328C98.4135 42.1693 96.9552 41.9375 94.9969 41.9375C92.8406 41.9375 91.2156 42.3229 90.1219 43.0938C89.0281 43.8646 88.2573 45.0521 87.8094 46.6562L91.7937 47.375C92.0646 46.6042 92.4187 46.0651 92.8562 45.7578C93.2937 45.4505 93.9031 45.2969 94.6844 45.2969C95.8406 45.2969 96.6271 45.4766 97.0437 45.8359C97.4604 46.1953 97.6687 46.7969 97.6687 47.6406V48.0781C96.8771 48.4115 95.4552 48.7708 93.4031 49.1562C91.8823 49.4479 90.7182 49.7891 89.9109 50.1797C89.1036 50.5703 88.476 51.1328 88.0281 51.8672C87.5802 52.6016 87.3562 53.4375 87.3562 54.375C87.3562 55.7917 87.8484 56.9635 88.8328 57.8906C89.8172 58.8177 91.1635 59.2812 92.8719 59.2812ZM92.4344 55.5156C92.8927 55.9635 93.476 56.1875 94.1844 56.1875C94.976 56.1875 95.7312 55.9271 96.45 55.4062C96.9812 55.0104 97.3302 54.526 97.4969 53.9531C97.6114 53.5781 97.6687 52.8646 97.6687 51.8125V50.9375C97.1062 51.125 96.2156 51.349 94.9969 51.6094C93.7781 51.8698 92.9812 52.125 92.6062 52.375C92.0333 52.7812 91.7469 53.2969 91.7469 53.9219C91.7469 54.5365 91.976 55.0677 92.4344 55.5156ZM113.109 59.2812C114.4 59.2812 115.557 59.0625 116.577 58.625L116.202 55.2188C115.432 55.5 114.843 55.6406 114.437 55.6406C114.145 55.6406 113.898 55.5677 113.695 55.4219C113.492 55.276 113.361 55.0911 113.304 54.8672C113.247 54.6432 113.218 53.8542 113.218 52.5V45.8125H116.218V42.3125H113.218V36.4531L108.812 39.0156V42.3125H106.796V45.8125H108.812V53.0469C108.812 54.599 108.859 55.6302 108.952 56.1406C109.067 56.8594 109.273 57.4297 109.57 57.8516C109.867 58.2734 110.333 58.6172 110.968 58.8828C111.604 59.1484 112.317 59.2812 113.109 59.2812ZM135.244 56.8047C133.624 58.4557 131.585 59.2812 129.127 59.2812C127.606 59.2812 126.155 58.9375 124.775 58.25C123.395 57.5625 122.346 56.5547 121.627 55.2266C120.908 53.8984 120.549 52.2812 120.549 50.375C120.549 48.9167 120.908 47.5052 121.627 46.1406C122.346 44.776 123.364 43.7344 124.682 43.0156C125.999 42.2969 127.471 41.9375 129.096 41.9375C131.606 41.9375 133.663 42.7526 135.267 44.3828C136.872 46.013 137.674 48.0729 137.674 50.5625C137.674 53.0729 136.864 55.1536 135.244 56.8047ZM129.111 55.7031C127.965 55.7031 127.002 55.2656 126.221 54.3906C125.439 53.5156 125.049 52.2552 125.049 50.6094C125.049 48.9635 125.439 47.7031 126.221 46.8281C127.002 45.9531 127.965 45.5156 129.111 45.5156C130.257 45.5156 131.218 45.9531 131.994 46.8281C132.77 47.7031 133.158 48.9531 133.158 50.5781C133.158 52.2448 132.77 53.5156 131.994 54.3906C131.218 55.2656 130.257 55.7031 129.111 55.7031ZM147.614 53.7812V58.9062H143.223V42.3125H147.301V44.6719C147.999 43.5573 148.627 42.8229 149.184 42.4688C149.741 42.1146 150.374 41.9375 151.082 41.9375C152.082 41.9375 153.046 42.2135 153.973 42.7656L152.614 46.5938C151.874 46.1146 151.187 45.875 150.551 45.875C149.937 45.875 149.416 46.0443 148.989 46.3828C148.562 46.7214 148.226 47.3333 147.981 48.2188C147.736 49.1042 147.614 50.9583 147.614 53.7812Z" fill="url(#paint0_linear_0_3036)"/>
<defs>
<linearGradient id="paint0_linear_0_3036" x1="-60.8302" y1="24.234" x2="-32.5024" y2="114.226" gradientUnits="userSpaceOnUse">
<stop stop-color="#0093ED"/>
<stop offset="1" stop-color="#00F3AB"/>
</linearGradient>
</defs>
</svg>
