<svg width="98" height="122" viewBox="0 0 98 122" fill="none" xmlns="http://www.w3.org/2000/svg">
<path fill-rule="evenodd" clip-rule="evenodd" d="M64.8392 3.5746C62.5425 1.2865 59.4271 0.000690976 56.1785 0H12.25C5.48451 0 0 5.46213 0 12.2V109.8C0 116.538 5.48451 122 12.25 122H85.75C92.5155 122 98 116.538 98 109.8V41.6508C97.9993 38.4154 96.7082 35.3128 94.4108 33.0254L64.8392 3.5746ZM67.0164 42.2614H91.5738V109.508C91.5738 112.884 88.8251 115.621 85.4344 115.621H11.7623C8.37163 115.621 5.62295 112.884 5.62295 109.508V11.695C5.62295 8.31871 8.37163 5.5817 11.7623 5.5817H54.7377V30.0349C54.7377 36.7874 60.2351 42.2614 67.0164 42.2614Z" fill="#5B6872"/>
<path fill-rule="evenodd" clip-rule="evenodd" d="M89.1638 36.68L61.0491 8.77148V30.5944C61.0491 33.9554 63.7938 36.68 67.1796 36.68H89.1638Z" fill="#0A131B" fill-opacity="0.8"/>
<path fill-rule="evenodd" clip-rule="evenodd" d="M46.366 48.7148L31.3397 64.2051C30.9535 64.6033 30.9535 65.2516 31.3397 65.6497L31.3539 65.6643C32.5387 66.8859 34.4574 66.8859 35.6422 65.6643L45.8017 55.1915V83.8575C45.8017 84.7412 46.5181 85.4575 47.4017 85.4575H48.1887C49.0723 85.4575 49.7886 84.7412 49.7886 83.8575V55.193L59.9467 65.6643C61.1315 66.8859 63.0522 66.8859 64.237 65.6643L64.2491 65.6497C64.6373 65.2516 64.6373 64.6033 64.2491 64.2051L49.2249 48.7148C48.4343 47.9018 47.1545 47.9018 46.366 48.7148Z" fill="#5B6872"/>
<path d="M31.3397 64.2051L30.4783 63.3696L30.4784 63.3696L31.3397 64.2051ZM46.366 48.7148L47.2274 49.5503L47.2273 49.5503L46.366 48.7148ZM31.3397 65.6497L30.4783 66.4852L30.4783 66.4852L31.3397 65.6497ZM31.3539 65.6643L32.2152 64.8288L32.2153 64.8288L31.3539 65.6643ZM35.6422 65.6643L34.7808 64.8288L34.7809 64.8288L35.6422 65.6643ZM45.8017 55.1915L44.9404 54.3559L47.0017 52.231V55.1915H45.8017ZM49.7886 55.193H48.5886V52.2326L50.65 54.3575L49.7886 55.193ZM59.9467 65.6643L60.808 64.8288L60.8081 64.8288L59.9467 65.6643ZM64.237 65.6643L65.1598 66.4315L65.1304 66.4668L65.0984 66.4998L64.237 65.6643ZM64.2491 65.6497L63.3264 64.8826L63.3568 64.846L63.3899 64.812L64.2491 65.6497ZM64.2491 64.2051L63.3899 65.0428L63.3878 65.0406L64.2491 64.2051ZM49.2249 48.7148L50.0852 47.8782L50.0863 47.8793L49.2249 48.7148ZM30.4784 63.3696L45.5047 47.8793L47.2273 49.5503L32.201 65.0406L30.4784 63.3696ZM30.4783 66.4852C29.6407 65.6215 29.6407 64.2333 30.4783 63.3696L32.2011 65.0406C32.2383 65.0023 32.2501 64.9584 32.2501 64.9274C32.2501 64.8965 32.2383 64.8526 32.2011 64.8142L30.4783 66.4852ZM30.4925 66.4998L30.4783 66.4852L32.2011 64.8142L32.2152 64.8288L30.4925 66.4998ZM36.5036 66.4998C34.8474 68.2074 32.1487 68.2074 30.4925 66.4998L32.2153 64.8288C32.9286 65.5643 34.0674 65.5643 34.7808 64.8288L36.5036 66.4998ZM46.663 56.027L36.5035 66.4999L34.7809 64.8288L44.9404 54.3559L46.663 56.027ZM47.0017 55.1915V83.8575H44.6017V55.1915H47.0017ZM47.0017 83.8575C47.0017 84.0784 47.1808 84.2575 47.4017 84.2575V86.6575C45.8553 86.6575 44.6017 85.4039 44.6017 83.8575H47.0017ZM47.4017 84.2575H48.1887V86.6575H47.4017V84.2575ZM48.1887 84.2575C48.4096 84.2575 48.5886 84.0784 48.5886 83.8575H50.9886C50.9886 85.4039 49.735 86.6575 48.1887 86.6575V84.2575ZM48.5886 83.8575V55.193H50.9886V83.8575H48.5886ZM59.0854 66.4999L48.9273 56.0286L50.65 54.3575L60.808 64.8288L59.0854 66.4999ZM65.0984 66.4998C63.4422 68.2074 60.7415 68.2074 59.0853 66.4998L60.8081 64.8288C61.5214 65.5643 62.6622 65.5643 63.3756 64.8288L65.0984 66.4998ZM65.1719 66.4169L65.1598 66.4315L63.3143 64.8971L63.3264 64.8826L65.1719 66.4169ZM65.1083 63.3674C65.9509 64.2316 65.9509 65.6232 65.1083 66.4874L63.3899 64.812C63.3529 64.8499 63.3403 64.8945 63.3403 64.9274C63.3403 64.9603 63.3529 65.0049 63.3899 65.0428L65.1083 63.3674ZM50.0863 47.8793L65.1105 63.3696L63.3878 65.0406L48.3635 49.5503L50.0863 47.8793ZM45.5046 47.8793C46.7651 46.5797 48.8241 46.5813 50.0852 47.8782L48.3646 49.5514C48.0446 49.2223 47.5439 49.2239 47.2274 49.5503L45.5046 47.8793Z" fill="#5B6872"/>
</svg>
