<?xml version="1.0" encoding="UTF-8"?>
<svg width="56px" height="56px" viewBox="0 0 56 56" version="1.1" xmlns="http://www.w3.org/2000/svg" xmlns:xlink="http://www.w3.org/1999/xlink">
    <title>Group 2 Copy</title>
    <g id="staker---staking-flow" stroke="none" stroke-width="1" fill="none" fill-rule="evenodd">
        <g id="polkadot-address-change" transform="translate(-1064.000000, -1376.000000)">
            <g id="Group-2-Copy" transform="translate(1064.000000, 1376.000000)">
                <circle id="Oval-Copy-2" fill="#1A2835" cx="28" cy="28" r="28"></circle>
                <g id="icon31" transform="translate(11.000000, 11.000000)" fill="#00F3AB" fill-rule="nonzero">
                    <path d="M12,20 C12,22.2080322 11.3286916,24 10.4994789,24 C9.67244113,24 9,22.2079884 9,20 C9,17.7907415 9.67244113,16 10.4994789,16 C11.3286916,16 12,17.7907415 12,20 Z" id="Path"></path>
                    <path d="M26,20 C26,22.2080322 25.3287017,24 24.5006343,24 C23.672431,24 23,22.2079884 23,20 C23,17.7907415 23.672431,16 24.5006343,16 C25.3287471,16 26,17.7907415 26,20 Z" id="Path"></path>
                    <path d="M17.0000677,0 C7.61082629,0 0,7.60965294 0,17.0000677 C0,26.3881809 7.61082624,34 17.0000677,34 C26.3881809,34 34,26.3881358 34,17.0000677 C34,7.60965294 26.3881809,0 17.0000677,0 Z M17.0000677,32.0427008 C8.69126009,32.0427008 1.95734428,25.3077471 1.95734428,17.0000676 C1.95734428,15.334696 2.23794479,13.7360222 2.73795343,12.2380721 C4.00516842,10.2400684 6.04162053,8.407275 9.21049291,8.65163842 C9.21049291,8.65163842 11.578494,17.6098254 21.2584445,14.4182993 C21.2584445,14.4182993 17.1391947,12.9757202 19.5071056,9.37236384 C19.5071056,9.37236384 25.0530948,17.2059376 31.8119208,14.4623434 C31.9533943,15.2894334 32.0427009,16.1334011 32.0427009,17.0001128 C32.0427009,25.3077471 25.3077471,32.0427008 17.0000677,32.0427008 Z" id="Shape"></path>
                </g>
            </g>
        </g>
    </g>
</svg>