<svg width="48" height="48" viewBox="0 0 48 48" fill="none" xmlns="http://www.w3.org/2000/svg">
<path fill-rule="evenodd" clip-rule="evenodd" d="M24 0C37.2548 0 48 10.7452 48 24C48 37.2548 37.2548 48 24 48C10.7452 48 0 37.2548 0 24C0 10.7452 10.7452 0 24 0ZM24 2C11.8497 2 2 11.8497 2 24C2 36.1503 11.8497 46 24 46C36.1503 46 46 36.1503 46 24C46 11.8497 36.1503 2 24 2ZM32.551 16.0939C32.9667 15.6321 33.6781 15.5948 34.1398 16.0106C34.6015 16.4263 34.6388 17.1377 34.2231 17.5994L20.806 32.5005C20.6507 32.673 20.4541 32.7863 20.2447 32.8388C19.8431 32.9557 19.392 32.8431 19.0933 32.5114L13.7936 26.6255C13.3779 26.1637 13.4151 25.4524 13.8769 25.0367C14.3386 24.6209 15.0499 24.6582 15.4657 25.1199L19.9448 30.0945L32.551 16.0939Z" fill="#00F3AB"/>
</svg>
