<?xml version="1.0" encoding="utf-8"?>
<svg width="16px" height="16px" viewBox="0 0 16 16" version="1.1" xmlns:xlink="http://www.w3.org/1999/xlink" xmlns="http://www.w3.org/2000/svg">
  <g id="pancakeswap-cake-logo">
    <path d="M2.85 2.5C2.6 1.2 3.6 0 4.9 0C6.05 0 7 0.95 7 2.1L7 4.7C7.3 4.7 7.6 4.65 7.9 4.65C8.2 4.65 8.45 4.65 8.75 4.7L8.75 2.1C8.75 0.95 9.7 0 10.85 0C12.15 0 13.15 1.2 12.95 2.5L12.4 5.55C14.35 6.4 15.85 7.9 15.85 9.75L15.85 10.9C15.85 12.45 14.85 13.75 13.4 14.6C11.95 15.5 10.05 16 7.9 16C5.75 16 3.85 15.5 2.4 14.6C1 13.75 0 12.45 0 10.9L0 9.75C0 7.9 1.45 6.4 3.4 5.55L2.85 2.5ZM11.65 5.95L12.3 2.35C12.45 1.45 11.8 0.6 10.85 0.6C10.05 0.6 9.4 1.25 9.4 2.05L9.4 5.35C9.2 5.3 8.95 5.3 8.75 5.3C8.45 5.3 8.2 5.25 7.9 5.25C7.6 5.25 7.3 5.25 7 5.3C6.8 5.3 6.55 5.35 6.35 5.35L6.35 2.1C6.35 1.3 5.7 0.65 4.9 0.65C4 0.65 3.3 1.5 3.5 2.4L4.15 6C2.05 6.8 0.65 8.2 0.65 9.8L0.65 10.95C0.65 13.4 3.9 15.4 7.9 15.4C11.9 15.4 15.15 13.4 15.15 10.95L15.15 9.8C15.2 8.15 13.8 6.75 11.65 5.95Z" id="Shape" fill="#633001" fill-rule="evenodd" stroke="none" />
    <path d="M14.5 1.15C14.5 3.6 11.25 5.6 7.25 5.6C3.25 5.6 0 3.6 0 1.15L0 0L14.55 0L14.55 1.15L14.5 1.15Z" transform="translate(0.7 9.75)" id="Shape" fill="#FEDC90" fill-rule="evenodd" stroke="none" />
    <path d="M2.8 1.75C2.6 0.85 3.3 0 4.2 0C5 0 5.65 0.65 5.65 1.45L5.65 4.75C6.15 4.7 6.65 4.65 7.2 4.65C7.7 4.65 8.2 4.7 8.7 4.75L8.7 1.45C8.7 0.65 9.35 1.11022e-16 10.15 1.11022e-16C11.05 1.11022e-16 11.75 0.85 11.6 1.75L10.95 5.35C13.05 6.15 14.5 7.55 14.5 9.15C14.5 11.6 11.25 13.6 7.25 13.6C3.25 13.6 0 11.6 0 9.15C0 7.55 1.4 6.15 3.5 5.35L2.8 1.75Z" transform="translate(0.7 0.65)" id="Shape" fill="#D1884F" fill-rule="evenodd" stroke="none" />
    <path d="M1.6 1.2C1.6 1.85 1.25 2.4 0.8 2.4C0.35 2.4 0 1.85 0 1.2C0 0.55 0.35 0 0.8 0C1.25 0 1.6 0.55 1.6 1.2Z" transform="translate(4.3 8.25)" id="Shape" fill="#633001" fill-rule="evenodd" stroke="none" />
    <path d="M1.6 1.2C1.6 1.85 1.25 2.4 0.8 2.4C0.35 2.4 0 1.85 0 1.2C0 0.55 0.35 0 0.8 0C1.25 0 1.6 0.55 1.6 1.2Z" transform="translate(9.85 8.25)" id="Shape" fill="#633001" fill-rule="evenodd" stroke="none" />
  </g>
</svg>