<?xml version="1.0" encoding="UTF-8"?>
<svg width="84px" height="84px" viewBox="0 0 84 84" version="1.1" xmlns="http://www.w3.org/2000/svg" xmlns:xlink="http://www.w3.org/1999/xlink">
    <title>Group 4</title>
    <g id="rpool,-rasset，rbridge" stroke="none" stroke-width="1" fill="none" fill-rule="evenodd">
        <g id="rbridge---输入状态" transform="translate(-801.000000, -353.000000)">
            <g id="Group-41-Copy" transform="translate(280.000000, 155.000000)">
                <g id="Group-28" transform="translate(0.000000, 37.000000)">
                    <g id="Group-4" transform="translate(521.000000, 161.000000)">
                        <circle id="Oval" stroke-opacity="0.5" stroke="#0095EB" fill-opacity="0.4" fill="#192634" cx="42" cy="42" r="41.5"></circle>
                        <path d="M44.344863,55.8566863 C47.9689413,56.1300182 51.3775639,56.7968371 54.5707307,57.8571429 C56.7183783,58.8377053 58.8660258,59.4817418 61.0136734,59.7892523 L59.4459596,67.8353281 C59.314197,68.5117489 58.7216606,69 58.032526,69 L48.8620787,69 C48.5448702,69 48.2650328,68.7924036 48.1730288,68.4888307 Z M39.7520766,55.72 L35.8988099,68.4880861 C35.8070509,68.7920336 35.527031,69 35.2095348,69 L26.0380116,69 C25.34963,69 24.7575196,68.5127904 24.6249621,67.8372922 L22.9583225,59.343669 C24.1670611,58.9906048 25.3178726,58.4950961 26.4107573,57.8571429 C30.7129754,56.4285714 35.4063043,55.7142857 40.490744,55.7142857 L39.7520766,55.72 Z M68.2797896,18 C68.3259976,18 68.3720983,18.0044483 68.4174537,18.0132832 C68.8077626,18.089313 69.0625362,18.4673552 68.9865064,18.8576641 L62.6514579,51.3767265 C60.2367848,51.1890825 57.5432091,50.4920784 54.5707307,49.2857143 C54.2497946,49.051264 53.9235914,48.8264329 53.5921211,48.611221 L58.5552435,18.6024945 C58.6127387,18.2549233 58.9132956,18 59.2655902,18 Z M24.782097,18 C25.1343915,18 25.4349485,18.2549233 25.4924437,18.6024945 L30.2025947,47.0724267 C28.8660684,47.6776354 27.6021226,48.4153979 26.4107573,49.2857143 C24.7616719,50.1790449 23.0732335,50.7930616 21.3454421,51.1277645 L15.0135518,18.8586461 C15.0045894,18.8129749 15.0000766,18.7665423 15.0000766,18.72 C15.0000766,18.322355 15.3224315,18 15.7200766,18 Z M44.2086192,29.3090366 C44.8357923,29.3090366 45.3908368,29.7149633 45.5809023,30.3126431 L50.9340703,47.1434408 C47.8441788,45.7144803 44.36307,45 40.490744,45 C38.0007813,45 35.6725745,45.2954147 33.5061235,45.886244 L38.4428814,30.3139262 C38.6325381,29.7155955 39.1879021,29.3090366 39.8155718,29.3090366 Z" id="Combined-Shape" fill="#00F3AB" fill-rule="nonzero"></path>
                    </g>
                </g>
            </g>
        </g>
    </g>
</svg>