<?xml version="1.0" encoding="UTF-8"?>
<svg width="72px" height="72px" viewBox="0 0 72 72" version="1.1" xmlns="http://www.w3.org/2000/svg" xmlns:xlink="http://www.w3.org/1999/xlink">
    <title>Group 5 Copy 7</title>
    <g id="staker---staking-flow" stroke="none" stroke-width="1" fill="none" fill-rule="evenodd">
        <g id="Group-5-Copy-7">
            <circle id="Oval" stroke="#1A2835" fill="#00F3AB" cx="36" cy="36" r="35.5"></circle>
            <path d="M23.3362603,44.6602502 C23.5715897,44.4215592 23.8951677,44.2823227 24.2383564,44.2823227 L55.3606729,44.2823227 C55.9293857,44.2823227 56.213742,44.978505 55.8117209,45.3862688 L49.6637397,51.6220725 C49.4284103,51.8607636 49.1048323,52 48.7616436,52 L17.6393271,52 C17.0706143,52 16.786258,51.3038178 17.1882791,50.8960539 L23.3362603,44.6602502 Z M23.3362603,21.3779275 C23.5813951,21.1392364 23.9049731,21 24.2383564,21 L55.3606729,21 C55.9293857,21 56.213742,21.6961822 55.8117209,22.1039461 L49.6637397,28.3397498 C49.4284103,28.5784408 49.1048323,28.7176773 48.7616436,28.7176773 L17.6393271,28.7176773 C17.0706143,28.7176773 16.786258,28.021495 17.1882791,27.6137312 L23.3362603,21.3779275 Z M49.6637397,32.9444979 C49.4284103,32.7058069 49.1048323,32.5665704 48.7616436,32.5665704 L17.6393271,32.5665704 C17.0706143,32.5665704 16.786258,33.2627526 17.1882791,33.6705165 L23.3362603,39.9063202 C23.5715897,40.1450112 23.8951677,40.2842477 24.2383564,40.2842477 L55.3606729,40.2842477 C55.9293857,40.2842477 56.213742,39.5880654 55.8117209,39.1803016 L49.6637397,32.9444979 Z" id="Combined-Shape" fill="#000000" fill-rule="nonzero"></path>
        </g>
    </g>
</svg>